<svg width="186" height="245" viewBox="0 0 186 245" fill="none" xmlns="http://www.w3.org/2000/svg">
<path fill-rule="evenodd" clip-rule="evenodd" d="M79.6203 0.607774C75.9736 1.24809 67.9983 3.25795 62.107 5.02136C54.991 7.15137 50.8804 9.61579 44.9768 15.2913C40.3391 19.75 36.8845 23.846 33.3935 29.0253C28.666 36.0391 27.8875 38.0161 27.8902 43.0029C27.8927 48.3655 28.5718 49.9431 31.5234 51.4439C34.0456 52.726 34.1822 53.0494 34.1822 57.7444V61.7292L35.4578 63.5012C36.51 64.962 36.7691 65.6076 36.9361 67.1794C37.3024 70.6262 37.7491 72.7191 38.8374 76.0878C40.5629 81.4283 43.6769 88.3002 46.06 92.0269C49.3456 97.1647 49.2532 96.8362 49.8381 105.489C50.3505 113.07 50.3505 113.081 49.7122 114.398C49.3607 115.123 48.0712 116.715 46.8468 117.936C43.5455 121.228 34.5006 127.171 32.7911 127.171C31.6843 127.171 27.2771 128.735 22.7701 130.728C20.2661 131.835 16.4214 133.431 14.2262 134.275C5.96047 137.453 2.96861 139.575 0.852975 143.759C-0.291268 146.022 -0.287891 146.964 0.884905 152.766C4.77908 172.032 12.6043 188.95 24.6322 204.108C28.0726 208.444 37.8602 218.352 42.4716 222.167C57.1334 234.297 70.4182 241.204 84.7742 244.16C88.4974 244.927 89.411 244.996 95.8921 245C102.43 245.004 103.246 244.942 106.898 244.165C118.205 241.761 128.476 236.789 138.504 228.866C144.924 223.793 153.822 214.265 159.48 206.407C170.221 191.486 178.797 171.663 183.368 151.193C184.406 146.546 185.998 137.285 186 135.889C186.002 134.807 178.798 130.911 171.418 128.001C166.046 125.884 158.99 123.687 154.378 122.696C147.812 121.285 140.457 118.726 138.233 117.078C137.572 116.589 136.196 115.108 135.174 113.787C133.768 111.968 132.891 111.158 131.564 110.448C128.937 109.043 129.001 109.234 129.983 105.725L130.848 102.632L130.327 98.141C129.91 94.5391 129.884 93.6011 130.196 93.4034C130.41 93.268 131.57 93.1549 132.774 93.1521C134.832 93.1478 135.024 93.0877 135.962 92.1513C137.328 90.7891 138.95 87.2044 139.798 83.6726C140.863 79.2419 141.582 75.4187 141.721 73.4526C141.829 71.9203 141.938 71.6659 142.549 71.5127C143.131 71.3671 143.29 71.0606 143.463 69.7511C143.707 67.9098 144.493 66.0008 145.609 64.5406C146.332 63.5946 146.396 63.2615 146.396 60.4614C146.396 58.7844 146.617 55.763 146.886 53.7468C147.675 47.8493 147.175 43.8624 145.116 39.6477C144.352 38.083 143.359 36.8756 140.64 34.2039C135.694 29.3441 134.16 27.3465 131.824 22.7248C130.695 20.4911 129.149 17.8364 128.388 16.8258C123.877 10.8336 118.393 7.29574 112.021 6.26706C109.016 5.78184 108.907 5.73709 105.825 3.74685C102.748 1.75968 102.1 1.55768 96.1125 0.723638C89.4648 -0.202666 84.4368 -0.237916 79.6203 0.607774ZM85.9141 3.84616C85.9141 3.95774 85.1199 5.09431 84.1488 6.37189C82.1105 9.05455 81.7384 9.77396 82.3902 9.77396C82.6361 9.77396 85.6787 8.85716 89.151 7.73682C93.9199 6.19809 95.5513 5.78613 95.8187 6.05311C96.0862 6.32009 96.0634 6.50829 95.7254 6.82278C95.0027 7.49498 61.9593 23.6618 61.745 23.4478C61.3966 23.0999 62.5522 21.1198 64.0145 19.559C64.7998 18.7207 66.4565 17.3934 67.6959 16.6097C69.8125 15.2708 70.4464 14.4082 69.6672 13.9273C69.5119 13.8314 67.6124 14.5256 65.4458 15.47C63.2792 16.4144 59.9349 17.8698 58.0142 18.7041C56.0935 19.5388 54.4485 20.1478 54.3589 20.0583C53.9972 19.6976 55.4 17.3373 56.8168 15.9231C58.7455 13.9975 61.8749 12.3981 67.6468 10.3888C70.1796 9.50698 73.979 8.09239 76.0897 7.24517C80.2362 5.58107 85.3124 3.6834 85.6839 3.65888C85.8107 3.6503 85.9141 3.73459 85.9141 3.84616ZM108.472 17.3603C109.421 18.4981 111.119 21.0156 112.244 22.9543C113.37 24.8931 115.002 27.238 115.871 28.1652L117.452 29.851L117.662 33.2228C117.777 35.0772 117.993 37.2152 118.141 37.9738C118.327 38.925 118.275 40.0668 117.974 41.6521C117.392 44.7102 117.422 45.4376 118.151 46.0966C119.059 46.9178 118.976 48.7033 117.986 49.6323L117.207 50.3628L108.699 50.4045L100.19 50.4461L96.6597 52.1412C94.7178 53.0733 92.4115 54.0689 91.5347 54.3531C90.6575 54.6375 89.5707 55.1601 89.1194 55.5148C88.3267 56.1373 88.303 56.2443 88.4326 58.6376C88.5585 60.9675 89.3156 63.415 89.9102 63.415C90.2277 63.415 90.8264 61.6823 90.8264 60.7639C90.8264 60.3676 90.8841 60.0433 90.9547 60.0433C91.0253 60.0433 91.2829 59.967 91.5267 59.8735C91.8659 59.7435 92.1769 60.447 92.8478 62.8621C93.6607 65.7884 93.8431 66.1388 95.326 67.6297C96.2062 68.5149 97.1543 69.2389 97.4321 69.2389C97.989 69.2389 100.651 67.1803 100.651 66.75C100.651 66.6016 99.9601 66.4802 99.1158 66.4802C98.2715 66.4802 97.5807 66.4318 97.5807 66.3726C97.5807 66.3135 97.7379 65.7964 97.9301 65.2232C98.5386 63.4086 100.344 61.3914 100.344 62.5258C100.344 63.312 101.353 64.8891 102.062 65.2115C103.222 65.7397 106.363 65.6315 109.584 64.9525C113.412 64.1458 113.354 64.1409 112.786 65.2388C112.222 66.3267 112.188 67.1481 112.686 67.645C113.347 68.3053 114.509 68.0349 116.386 66.784C117.4 66.1081 118.969 65.3403 119.873 65.0779C120.777 64.8155 121.603 64.4615 121.708 64.2911C121.814 64.1203 121.665 63.3666 121.378 62.6156C120.883 61.3224 120.884 61.2065 121.399 60.4231L121.941 59.5958L122.896 62.501C123.796 65.2431 123.922 65.446 125.145 66.1191L126.44 66.8327V70.2127C126.44 73.1461 126.32 73.952 125.529 76.3085C124.341 79.8476 122.808 82.8481 121.311 84.5649C119.488 86.6551 119.072 87.3708 119.072 88.4157C119.072 89.521 117.621 92.5237 116.36 94.0294C115.346 95.2395 115.34 95.238 111.915 92.7505C109.943 91.3188 109.733 91.2382 108.381 91.3973C107.441 91.5082 106.679 91.42 106.177 91.1419C105.118 90.5556 104.949 90.5902 104.949 91.3933C104.949 92.2313 105.45 93.0022 107.617 95.5004L109.259 97.3931L110.865 97.2365C113.076 97.0207 113.45 97.3842 114.004 100.282C114.517 102.969 115.186 104.489 115.856 104.489C116.166 104.489 116.309 104.161 116.309 103.454C116.309 102.885 116.397 101.98 116.504 101.442L116.7 100.464L117.288 101.327C119.808 105.026 120.972 109.025 120.976 113.991C120.978 116.918 120.841 117.98 120.165 120.249C118.976 124.245 118.794 124.341 118.974 120.881C119.212 116.285 117.915 111.387 115.769 108.783C115.169 108.056 115.111 108.044 114.556 108.546C114.236 108.836 113.637 109.11 113.226 109.156C112.525 109.235 112.385 108.969 110.936 104.795C110.088 102.351 109.283 100.178 109.149 99.9676C108.565 99.0535 107.313 99.9602 106.926 101.577C106.613 102.886 106.484 103.032 105.998 102.629C105.719 102.397 105.581 101.71 105.605 100.674C105.641 99.0851 105.196 97.7453 104.631 97.7453C104.468 97.7453 104.335 98.7108 104.335 99.8909C104.335 101.071 104.207 102.037 104.05 102.037C103.498 102.037 102.476 100.387 101.986 98.7044C101.61 97.4115 101.075 96.567 99.7679 95.1987C97.7133 93.0479 97.5825 92.9719 94.61 92.1945C91.4665 91.3724 88.3703 89.9459 88.3703 89.3197C88.3703 88.5295 90.2787 87.9367 92.8223 87.9367C94.6914 87.9367 95.4408 87.7871 96.6597 87.1703C97.4926 86.7489 98.3516 86.4053 98.5684 86.4071C98.7851 86.4087 99.5689 86.8914 100.31 87.4799C101.74 88.6147 102.493 88.832 102.493 88.1098C102.493 86.6603 100.5 84.1297 98.2113 82.6743C96.2185 81.4068 96.1153 81.4752 96.4039 83.8679C96.7696 86.8985 96.4776 87.091 93.207 85.9734L90.6729 85.1075L88.7479 86.0283C87.0507 86.8402 86.6709 86.915 85.5371 86.6609C83.8492 86.2821 82.4203 85.5905 81.7206 84.8135C81.2012 84.2366 81.1609 83.6003 81.222 76.9424C81.2589 72.9582 81.4185 68.8021 81.5773 67.7063C81.9484 65.1404 81.4244 57.3649 80.74 55.2922L80.2344 53.7596L78.2388 53.5178C77.0816 53.3774 75.6626 52.955 74.8616 52.5124C70.7381 50.2343 70.5564 50.1859 65.0912 49.9152C59.8194 49.6544 56.7634 49.1888 56.3686 48.5865C55.975 47.9857 56.1282 46.4445 56.7078 45.1771C57.0161 44.5027 58.2742 43.0057 59.5035 41.8504C63.227 38.3509 67.5123 35.8962 74.5494 33.2323C78.6419 31.6828 80.2092 30.7452 83.6115 27.8099C86.6749 25.1671 87.5776 24.5878 95.3644 20.2708C101.677 16.7712 104.779 15.3545 106.231 15.3079C106.513 15.2987 107.522 16.2225 108.472 17.3603ZM125.304 50.8744C126.057 52.6332 126.903 55.1092 127.186 56.3764C127.721 58.7774 127.74 62.7885 127.217 62.8326C127.053 62.8464 126.341 61.4603 125.636 59.7524C124.93 58.0442 123.646 55.4234 122.782 53.9285C120.669 50.2739 120.062 47.8232 120.557 44.9417C120.76 43.7646 121.02 42.6486 121.135 42.4619C121.35 42.1149 122.864 45.1694 125.304 50.8744ZM115.645 55.2067L115.354 56.5008L117.268 58.2149C118.658 59.46 119.127 60.0706 118.983 60.4461C118.679 61.2357 115.755 61.1118 109.533 60.0457C106.59 59.5415 103.675 59.1277 103.055 59.1262C101.012 59.1216 100.881 58.9484 101.702 57.3321C102.101 56.5474 102.707 55.6527 103.049 55.3437C103.913 54.5642 107.723 53.9822 112.208 53.9445L115.936 53.9129L115.645 55.2067ZM68.8957 55.7296C70.2318 56.3197 71.4811 57.8318 71.4832 58.8617C71.4842 59.2874 71.3055 59.3242 70.3332 59.0989C68.577 58.6915 64.7682 58.7737 62.9464 59.2577C62.0499 59.4959 60.0466 60.2082 58.4947 60.8403C56.943 61.4726 55.2204 61.9931 54.6671 61.9974C53.4507 62.0066 52.0081 60.7501 52.3157 59.9498C52.5644 59.3027 56.1494 56.9058 58.1481 56.0506C61.2191 54.7362 66.3027 54.5845 68.8957 55.7296ZM44.9191 59.7972C44.034 65.9929 44.6677 72.3308 46.8665 79.2775C47.1999 80.3313 47.4213 81.1932 47.3577 81.1932C46.7581 81.1932 43.9155 73.5618 43.3856 70.5294C42.8271 67.3308 42.8274 65.5006 43.3877 62.3609C43.8375 59.8419 45.0898 55.6585 45.3244 55.8924C45.3977 55.966 45.2154 57.7229 44.9191 59.7972ZM64.9276 63.5995C65.3534 63.7136 65.6518 64.1071 65.7737 64.7156C66.0838 66.2647 66.4503 66.4802 68.7741 66.4802C71.241 66.4802 72.6121 65.9135 72.8983 64.7754C73.0051 64.3496 73.1798 64.0419 73.2863 64.0912C74.0499 64.4462 76.3955 66.3539 76.3899 66.616C76.3863 66.7941 76.1013 67.5607 75.7566 68.3194C75.2868 69.3529 75.0596 70.7746 74.8506 73.99C74.3124 82.2571 73.9553 83.6313 71.7356 85.9746C69.9564 87.8527 67.4242 89.0886 64.5115 89.5002C61.9225 89.8665 61.4104 89.5502 60.276 86.8853C59.8047 85.7778 59.249 84.8714 59.0415 84.8714C58.8342 84.8714 58.4855 85.3024 58.2672 85.829C57.892 86.7333 57.8463 86.7547 57.4484 86.2122C57.2163 85.8961 56.3855 84.4978 55.6017 83.1044C54.5035 81.1521 53.883 80.3993 52.8956 79.8215C51.9261 79.2545 51.4428 78.6779 50.9071 77.4506C50.0545 75.4968 49.7942 73.0692 50.2796 71.6006C50.7152 70.2826 53.393 67.7063 54.3273 67.7063C54.699 67.7063 55.7383 68.2605 56.6369 68.9376C57.5353 69.6147 58.6525 70.3139 59.1198 70.4913C60.1842 70.8953 63.9371 70.9021 64.6546 70.5012C65.1305 70.2351 65.097 70.1661 64.3574 69.8854C63.899 69.7113 62.7616 69.3477 61.8301 69.0774C60.8986 68.807 60.0651 68.4708 59.9782 68.3304C59.6761 67.8424 61.5673 66.1737 62.4229 66.1737C62.8758 66.1737 63.1957 66.0701 63.134 65.9438C63.0723 65.8175 62.827 65.3246 62.5887 64.8489C62.2138 64.101 62.2154 63.9462 62.5985 63.7044C63.106 63.3838 63.9755 63.3445 64.9276 63.5995ZM141.74 67.9751C142.05 68.1713 142.079 68.4882 141.858 69.2732C141.185 71.6623 135.004 88.6453 134.595 89.2286C133.317 91.0506 130.216 91.6489 128.979 90.3122C127.593 88.8145 127.353 86.1202 128.265 82.308C128.593 80.9363 129.088 77.8828 129.365 75.5226C129.91 70.8794 130.262 69.5454 130.945 69.5454C131.511 69.5454 132.273 71.3701 132.273 72.7268C132.273 73.307 131.999 74.6563 131.663 75.7252C130.825 78.3944 130.855 78.741 131.919 78.741C133.095 78.741 133.701 77.998 135.375 74.5037L136.787 71.5547L137.259 72.4534L137.731 73.3518L138.361 72.3173C138.707 71.7481 139.292 70.4779 139.661 69.4945C140.327 67.7167 140.793 67.3759 141.74 67.9751ZM126.021 89.6829C125.961 89.7433 125.528 89.6473 125.059 89.4693C124.589 89.2912 124.145 89.2066 124.07 89.281C123.877 89.4732 124.537 90.6576 125.567 91.9705C126.834 93.5846 127.411 95.4421 127.406 97.8986C127.403 99.8183 127.228 100.443 125.743 103.836C124.83 105.921 123.858 107.753 123.584 107.906C122.947 108.262 122.115 106.716 121.231 103.53C120.501 100.901 120.457 98.9141 121.073 96.366C121.318 95.3544 121.52 93.961 121.523 93.2695C121.527 92.3689 122.016 91.0202 123.249 88.5184L124.969 85.0247L125.55 87.2988C125.87 88.5494 126.082 89.6222 126.021 89.6829ZM78.7816 104.049C78.4135 104.417 73.9406 106.552 73.9406 106.36C73.9406 105.835 75.0369 104.691 75.8987 104.316C76.8274 103.912 79.1322 103.699 78.7816 104.049ZM91.3099 107.391C92.3725 107.834 92.3814 107.853 91.9344 108.716C91.3772 109.792 90.9142 110.171 89.8482 110.425C88.4863 110.749 80.9697 111.533 79.189 111.536C77.6481 111.538 77.4455 111.45 76.3491 110.3C75.6998 109.618 75.1686 108.94 75.1686 108.793C75.1686 107.903 79.1583 107.385 89.0709 106.988C89.7095 106.962 90.7171 107.143 91.3099 107.391ZM130.91 114.451C131.933 115.462 133.369 116.801 134.101 117.427C135.432 118.564 135.432 118.564 135.231 120.185C134.593 125.345 134.433 128.719 134.355 138.666C134.268 149.833 134.317 150.574 135.508 155.908L135.662 156.597H125.064C119.236 156.597 114.467 156.51 114.467 156.404C114.467 156.299 116.213 151.643 118.348 146.059C123.654 132.183 126.438 124.008 126.447 122.279C126.452 121.514 126.589 120.308 126.753 119.6C126.954 118.728 126.944 118.035 126.722 117.454C126.196 116.083 126.334 114.196 127.089 112.444L127.79 110.819L128.42 111.715C128.766 112.208 129.887 113.439 130.91 114.451ZM76.7224 115.419C76.9582 116.039 76.8382 117.237 76.2232 120.4C75.3492 124.897 74.7735 126.155 74.4066 124.37C74.0198 122.487 73.5393 121.041 73.3001 121.041C72.8362 121.041 71.4531 124.465 70.8164 127.191C69.9911 130.724 69.4867 130.448 69.4938 126.466C69.5021 121.814 71.478 117.148 74.2215 115.302C75.5975 114.376 76.3384 114.411 76.7224 115.419ZM88.9616 116.278C89.4832 116.547 90.0272 117.22 90.3253 117.964C91.0514 119.776 91.7474 119.457 91.7474 117.312C91.7474 115.946 92.3777 116.348 93.3936 118.363C94.7209 120.995 94.6226 123.161 93.0225 126.558C92.3473 127.991 91.4978 129.853 91.1343 130.696L90.4739 132.229L89.9284 131.188C89.6284 130.616 89.3005 130.28 89.2001 130.442C89.0663 130.659 88.3703 135.298 88.3703 135.976C88.3703 136.022 88.1778 136.06 87.9426 136.06C87.2939 136.06 87.1849 135.515 86.8254 130.461C86.4305 124.915 86.2015 123.646 85.5945 123.646C85.2608 123.646 85.0628 124.333 84.8178 126.339C84.6032 128.098 84.3106 129.21 83.9738 129.546C83.4915 130.028 83.4012 129.993 82.5606 128.999C81.6985 127.98 81.6399 127.959 81.1054 128.481C80.5678 129.006 80.573 129.095 81.254 131.043C81.642 132.153 81.8981 133.122 81.8232 133.197C81.5069 133.513 79.8006 130.971 79.3517 129.516C78.6173 127.135 78.1427 122.56 78.5255 121.554C78.7868 120.868 78.9762 120.754 79.5949 120.908C80.2669 121.077 80.4183 120.931 81.0243 119.524C81.7664 117.802 82.051 117.589 84.9931 116.548C87.3494 115.715 87.8109 115.684 88.9616 116.278ZM141.517 121.473C145.201 123.17 154.689 126.306 167.545 130.077C174.166 132.019 179.63 133.608 179.687 133.608C179.743 133.608 179.857 133.866 179.939 134.181C180.021 134.496 180.82 135.151 181.713 135.637C182.606 136.123 183.315 136.623 183.287 136.75C183.26 136.877 183.238 137.522 183.238 138.185C183.238 139.122 183.101 139.434 182.624 139.585C182.167 139.73 182.01 140.049 182.01 140.832C182.01 141.843 181.964 141.885 180.858 141.889C180.225 141.892 179.55 141.995 179.358 142.119C178.924 142.399 177.677 145.348 176.836 148.081C175.984 150.851 175.53 151.661 173.88 153.356C171.224 156.085 166.663 157.554 160.826 157.563C157.925 157.568 151.419 156.748 142.712 155.281L140.409 154.894L140.213 146.626C139.993 137.323 139.553 131.59 138.698 126.865C137.98 122.894 137.963 121.707 138.615 120.988C138.894 120.68 139.151 120.428 139.185 120.428C139.22 120.428 140.269 120.898 141.517 121.473ZM51.6903 121.884C50.4942 130.902 49.2167 137.894 48.0043 142.06L47.5517 143.615L45.5856 143.977C44.504 144.175 42.7507 144.429 41.6893 144.54C39.8831 144.728 39.7186 144.692 39.1199 143.971C38.7684 143.548 36.8572 141.334 34.873 139.052C32.8887 136.77 31.2655 134.829 31.2655 134.74C31.2655 134.65 31.9907 134.34 32.8774 134.05C36.7126 132.797 38.8727 131.367 46.4493 125.065C49.3125 122.683 51.6974 120.734 51.7489 120.734C51.8005 120.734 51.7741 121.252 51.6903 121.884ZM103.562 122.663C108.141 127.442 109.625 133.965 107.549 140.2C106.738 142.638 106.619 142.835 106.445 142.026C106.337 141.527 106.233 140.187 106.213 139.049C106.171 136.608 105.694 136.333 104.617 138.129C103.705 139.652 102.769 140.675 102.463 140.486C102.326 140.402 102.12 139.498 102.004 138.477C101.888 137.457 101.64 136.576 101.452 136.52C101.265 136.464 100.748 136.339 100.304 136.243C99.5207 136.072 99.4897 135.979 99.2773 133.152C99.1569 131.548 98.9549 130.236 98.8284 130.236C98.7019 130.236 98.3372 130.721 98.0179 131.313C97.5347 132.209 97.4017 132.298 97.2236 131.849C96.5995 130.274 97.1371 126.768 98.3854 124.272C99.183 122.677 100.837 120.734 101.396 120.734C101.571 120.734 102.545 121.602 103.562 122.663ZM44.458 150.084C46.4784 157.952 50.5783 169.396 54.5891 178.36C56.9967 183.742 61.5286 192.326 65.1071 198.284C69.6703 205.881 70.23 207.054 69.1051 206.659C66.4884 205.741 56.5513 195.547 46.1493 183.111C38.1049 173.494 22.9602 153.037 22.9807 151.817C22.9854 151.556 31.2677 148.042 33.477 147.362C35.5186 146.735 38.8467 146.23 41.121 146.203L43.4543 146.176L44.458 150.084ZM127.538 160.906C129.383 161.085 133.655 161.702 137.032 162.278C140.409 162.854 145.521 163.618 148.392 163.975C153.79 164.647 154.569 164.935 154.127 166.095C153.534 167.651 134.357 184.867 123.106 193.944C97.8883 214.288 65.7267 235.157 63.9687 232.318C63.6212 231.756 65.1639 229.714 69.1515 225.456C73.9234 220.36 79.3035 214.241 82.2622 210.545C93.6024 196.378 102.609 180.541 108.629 164.184L109.955 160.582H117.07C120.983 160.582 125.693 160.728 127.538 160.906ZM77.6742 165.18C80.9743 166.265 81.0268 166.269 83.2281 165.513C85.0646 164.882 86.5616 165.012 88.4056 165.964C89.2944 166.423 89.2956 166.428 88.7903 167.412C88.2367 168.488 83.1952 174.702 79.3413 179.058L76.9134 181.803L76.3823 181.1C75.6399 180.117 72.5074 171.167 72.0629 168.758C71.5259 165.848 72.2836 164.352 74.3333 164.28C74.6335 164.269 76.137 164.674 77.6742 165.18Z" fill="black"/>
</svg>
