<svg width="188" height="47" viewBox="0 0 188 47" fill="none" xmlns="http://www.w3.org/2000/svg">
<rect x="1" y="1" width="186" height="45" rx="15" stroke="white" stroke-width="2"/>
<path d="M73.54 30L79.084 17.31H81.136L86.68 30H84.34L83.062 26.958H77.104L75.808 30H73.54ZM77.914 24.996H82.252L80.074 19.956L77.914 24.996ZM88.5707 32.88V20.496H90.7667V22.08C91.6067 20.892 92.6867 20.298 94.0067 20.298C95.1947 20.298 96.2267 20.742 97.1027 21.63C97.9787 22.518 98.4167 23.718 98.4167 25.23V25.266C98.4167 26.778 97.9787 27.978 97.1027 28.866C96.2387 29.754 95.2067 30.198 94.0067 30.198C92.6867 30.198 91.6067 29.64 90.7667 28.524V32.88H88.5707ZM91.5227 27.462C92.0627 28.026 92.7167 28.308 93.4847 28.308C94.2527 28.308 94.8947 28.032 95.4107 27.48C95.9387 26.916 96.2027 26.178 96.2027 25.266V25.23C96.2027 24.33 95.9387 23.598 95.4107 23.034C94.8827 22.47 94.2407 22.188 93.4847 22.188C92.7167 22.188 92.0627 22.476 91.5227 23.052C90.9827 23.616 90.7127 24.342 90.7127 25.23V25.266C90.7127 26.154 90.9827 26.886 91.5227 27.462ZM100.647 32.88V20.496H102.843V22.08C103.683 20.892 104.763 20.298 106.083 20.298C107.271 20.298 108.303 20.742 109.179 21.63C110.055 22.518 110.493 23.718 110.493 25.23V25.266C110.493 26.778 110.055 27.978 109.179 28.866C108.315 29.754 107.283 30.198 106.083 30.198C104.763 30.198 103.683 29.64 102.843 28.524V32.88H100.647ZM103.599 27.462C104.139 28.026 104.793 28.308 105.561 28.308C106.329 28.308 106.971 28.032 107.487 27.48C108.015 26.916 108.279 26.178 108.279 25.266V25.23C108.279 24.33 108.015 23.598 107.487 23.034C106.959 22.47 106.317 22.188 105.561 22.188C104.793 22.188 104.139 22.476 103.599 23.052C103.059 23.616 102.789 24.342 102.789 25.23V25.266C102.789 26.154 103.059 26.886 103.599 27.462ZM122.8 30.18C120.784 30.18 119.032 29.508 117.544 28.164L118.876 26.58C120.136 27.672 121.462 28.218 122.854 28.218C123.538 28.218 124.078 28.074 124.474 27.786C124.882 27.486 125.086 27.102 125.086 26.634V26.598C125.086 26.13 124.888 25.758 124.492 25.482C124.108 25.194 123.358 24.924 122.242 24.672C120.79 24.336 119.728 23.898 119.056 23.358C118.384 22.818 118.048 22.002 118.048 20.91V20.874C118.048 19.794 118.45 18.918 119.254 18.246C120.058 17.562 121.09 17.22 122.35 17.22C124.066 17.22 125.59 17.748 126.922 18.804L125.734 20.478C124.558 19.614 123.418 19.182 122.314 19.182C121.678 19.182 121.174 19.326 120.802 19.614C120.442 19.89 120.262 20.244 120.262 20.676V20.712C120.262 21.204 120.46 21.588 120.856 21.864C121.264 22.128 122.068 22.404 123.268 22.692C124.672 23.052 125.692 23.508 126.328 24.06C126.976 24.6 127.3 25.374 127.3 26.382V26.418C127.3 27.582 126.886 28.5 126.058 29.172C125.23 29.844 124.144 30.18 122.8 30.18ZM132.749 30.162C130.925 30.162 130.013 29.232 130.013 27.372V22.368H128.807V20.496H130.013V17.886H132.191V20.496H134.747V22.368H132.191V27.03C132.191 27.822 132.581 28.218 133.361 28.218C133.829 28.218 134.279 28.11 134.711 27.894V29.676C134.123 30 133.469 30.162 132.749 30.162ZM141.218 30.216C139.778 30.216 138.578 29.742 137.618 28.794C136.658 27.834 136.178 26.67 136.178 25.302V25.266C136.178 23.886 136.664 22.716 137.636 21.756C138.608 20.784 139.814 20.298 141.254 20.298C142.706 20.298 143.912 20.778 144.872 21.738C145.832 22.686 146.312 23.85 146.312 25.23V25.266C146.312 26.622 145.826 27.786 144.854 28.758C143.882 29.73 142.67 30.216 141.218 30.216ZM141.254 28.308C142.118 28.308 142.814 28.02 143.342 27.444C143.87 26.856 144.134 26.142 144.134 25.302V25.266C144.134 24.414 143.858 23.694 143.306 23.106C142.754 22.506 142.058 22.206 141.218 22.206C140.366 22.206 139.676 22.5 139.148 23.088C138.62 23.664 138.356 24.378 138.356 25.23V25.266C138.356 26.106 138.632 26.826 139.184 27.426C139.736 28.014 140.426 28.308 141.254 28.308ZM148.512 30V20.496H150.708V22.638C151.38 21.018 152.502 20.244 154.074 20.316V22.62H153.948C152.952 22.62 152.16 22.944 151.572 23.592C150.996 24.228 150.708 25.158 150.708 26.382V30H148.512ZM160.005 30.216C158.613 30.216 157.449 29.76 156.513 28.848C155.589 27.924 155.127 26.736 155.127 25.284V25.248C155.127 23.856 155.565 22.686 156.441 21.738C157.317 20.778 158.427 20.298 159.771 20.298C161.211 20.298 162.327 20.79 163.119 21.774C163.923 22.746 164.325 23.958 164.325 25.41C164.325 25.53 164.313 25.734 164.289 26.022H157.305C157.425 26.79 157.731 27.384 158.223 27.804C158.715 28.224 159.321 28.434 160.041 28.434C160.965 28.434 161.823 28.056 162.615 27.3L163.893 28.434C162.885 29.622 161.589 30.216 160.005 30.216ZM157.287 24.582H162.165C162.093 23.85 161.847 23.25 161.427 22.782C161.007 22.314 160.449 22.08 159.753 22.08C159.081 22.08 158.523 22.308 158.079 22.764C157.647 23.22 157.383 23.826 157.287 24.582Z" fill="white"/>
<path d="M50.3571 7H23.6429C21.632 7 20 8.632 20 10.6429V37.3571C20 39.368 21.632 41 23.6429 41H50.3571C52.368 41 54 39.368 54 37.3571V10.6429C54 8.632 52.368 7 50.3571 7ZM29.639 33.7519C29.4377 34.1001 29.1064 34.354 28.7179 34.4578C28.3294 34.5617 27.9156 34.5069 27.5674 34.3056C27.2193 34.1044 26.9654 33.773 26.8615 33.3845C26.7577 32.996 26.8124 32.5822 27.0137 32.2341L28.0993 30.3592C29.3209 29.9876 30.3226 30.2754 31.1046 31.2238L29.639 33.7519ZM40.1802 29.6622H26.375C25.5396 29.6622 24.8571 28.9786 24.8571 28.1444C24.8571 27.3101 25.5408 26.6265 26.375 26.6265H30.2461L35.2089 18.0354L33.6534 15.3494C33.4532 15.001 33.3991 14.5876 33.5029 14.1994C33.6066 13.8112 33.8598 13.4799 34.2071 13.2779C34.5555 13.0777 34.969 13.0235 35.3572 13.1273C35.7454 13.231 36.0767 13.4843 36.2787 13.8316L36.9539 14.9997L37.629 13.8316C37.7287 13.6592 37.8613 13.5081 38.0194 13.387C38.1774 13.2659 38.3577 13.1771 38.5501 13.1257C38.7425 13.0743 38.9431 13.0612 39.1405 13.0873C39.3379 13.1135 39.5282 13.1782 39.7006 13.2779C39.873 13.3775 40.024 13.5102 40.1451 13.6682C40.2662 13.8262 40.355 14.0066 40.4065 14.199C40.4579 14.3913 40.4709 14.5919 40.4448 14.7893C40.4187 14.9867 40.354 15.1771 40.2543 15.3494L33.7433 26.6277H38.4559C39.9884 26.6277 40.8469 28.4261 40.179 29.6634L40.1802 29.6622ZM47.625 29.6622H45.4235L46.911 32.2353C47.3287 32.9639 47.0774 33.8904 46.3573 34.3069C45.6287 34.7246 44.7022 34.4732 44.2857 33.7531C41.7891 29.4351 39.9216 26.1869 38.6696 24.0316C37.4019 21.8301 38.3054 19.6298 39.2088 18.8866C40.2033 20.6097 41.6908 23.1901 43.6786 26.6277H47.625C48.0276 26.6277 48.4136 26.7876 48.6983 27.0723C48.9829 27.3569 49.1429 27.743 49.1429 28.1456C49.1429 28.5481 48.9829 28.9342 48.6983 29.2189C48.4136 29.5035 48.0276 29.6634 47.625 29.6634V29.6622Z" fill="white"/>
</svg>
