<svg width="160" height="96" viewBox="0 0 160 96" fill="none" xmlns="http://www.w3.org/2000/svg">
<path fill-rule="evenodd" clip-rule="evenodd" d="M38.6211 58.1445H47.6281C50.4316 58.1445 52.9177 60.7277 52.9177 63.8952C52.9177 65.4769 52.3699 66.8389 51.5808 67.8069C50.8926 68.6514 50.0121 69.2054 49.1433 69.3309L53.3044 76.8335H49.5441L45.5409 69.358H41.7665V76.8335H38.6211V58.1445ZM47.6281 66.1953C48.2967 66.1953 48.8285 65.924 49.1957 65.4883C49.5644 65.0499 49.7724 64.4374 49.7724 63.7513C49.7724 63.0648 49.5644 62.4526 49.1957 62.0142C48.8285 61.5786 48.2967 61.3073 47.6281 61.3073H41.7665V66.1953H47.6281Z" fill="white"/>
<path fill-rule="evenodd" clip-rule="evenodd" d="M84.5137 58.1445H93.5205C96.3241 58.1445 98.8101 60.7277 98.8101 63.8952C98.8101 65.4769 98.2623 66.8389 97.4732 67.8069C96.7851 68.6514 95.9045 69.2054 95.0357 69.3309L99.1968 76.8335H95.4365L91.4333 69.358H87.6589V76.8335H84.5137V58.1445ZM93.5205 66.1953C94.1892 66.1953 94.7209 65.924 95.0881 65.4883C95.4568 65.0499 95.6648 64.4374 95.6648 63.7513C95.6648 63.0648 95.4568 62.4526 95.0881 62.0142C94.7209 61.5786 94.1892 61.3073 93.5205 61.3073H87.6589V66.1953H93.5205Z" fill="white"/>
<path d="M3.87965 76.6896H0.0195312L9.31239 58.1445L18.7482 76.6896H14.8882L9.31239 65.0452L3.87965 76.6896Z" fill="white"/>
<path d="M20.1781 58.2891H16.4609L25.8968 76.8341L35.0467 58.2891H31.9014L25.8968 70.2212L20.1781 58.2891Z" fill="white"/>
<path d="M63.7832 67.4892C63.7832 72.6497 68.0866 76.8335 73.219 76.8335C76.0139 76.8335 78.521 75.4908 80.2243 73.5269V66.6266H73.219V69.5015H77.079V72.7566C76.0037 73.5968 74.6673 74.1021 73.219 74.1021C69.6659 74.1021 66.7854 71.062 66.7854 67.4892C66.7854 63.916 69.6659 61.0198 73.219 61.0198C74.9367 61.0198 76.4972 61.807 77.651 62.8753L79.9384 61.1779C78.2465 59.3972 75.8614 58.1445 73.219 58.1445C68.0866 58.1445 63.7832 62.3283 63.7832 67.4892Z" fill="white"/>
<path fill-rule="evenodd" clip-rule="evenodd" d="M112.106 76.8335C117.317 76.8335 121.399 72.7291 121.399 67.4892C121.399 62.2489 117.317 58.1445 112.106 58.1445C106.894 58.1445 102.67 62.2489 102.67 67.4892C102.67 72.7291 106.894 76.8335 112.106 76.8335ZM112.106 74.1021C115.659 74.1021 118.539 71.062 118.539 67.4892C118.539 63.916 115.659 61.1634 112.106 61.1634C108.553 61.1634 105.672 63.916 105.672 67.4892C105.672 71.062 108.553 74.1021 112.106 74.1021Z" fill="white"/>
<path d="M132.836 76.9768C136.468 76.9768 139.984 74.8784 139.984 71.2261V58H136.839V70.7948C136.839 73.0178 135.047 74.3889 132.836 74.3889C130.625 74.3889 128.833 73.0178 128.833 70.7948V58H125.688V71.2261C125.688 74.8784 129.204 76.9768 132.836 76.9768Z" fill="white"/>
<path fill-rule="evenodd" clip-rule="evenodd" d="M160.001 63.4632C160.001 66.4801 157.568 68.926 154.568 68.926H148.277V76.9768H145.418V58H154.568C157.568 58 160.001 60.446 160.001 63.4632ZM156.855 63.6067C156.855 64.9565 155.831 66.0507 154.568 66.0507H148.277V61.1627H154.568C155.831 61.1627 156.855 62.2569 156.855 63.6067Z" fill="white"/>
<path d="M79.653 22.2819L72.2188 17.9691L79.653 13.6562L87.0872 17.9691L79.653 22.2819Z" fill="white"/>
<path d="M78.7943 24.0082L71.0742 19.6953V28.321L78.7943 32.6338V24.0082Z" fill="white"/>
<path d="M88.2298 19.6953L80.5098 24.0082V32.6338L88.2298 28.321V19.6953Z" fill="white"/>
<path fill-rule="evenodd" clip-rule="evenodd" d="M45.3398 23.4331C45.3398 23.4331 55.0614 0 79.795 0C104.528 0 114.25 23.4331 114.25 23.4331C114.25 23.4331 104.671 46.8661 79.795 46.8661C54.9183 46.8661 45.3398 23.4331 45.3398 23.4331ZM79.795 39.5345C88.638 39.5345 95.8071 32.4694 95.8071 23.5769C95.8071 14.6844 88.638 7.47558 79.795 7.47558C70.9516 7.47558 63.9256 14.6844 63.9256 23.5769C63.9256 32.4694 70.9516 39.5345 79.795 39.5345Z" fill="white"/>
<path d="M1.468 93L5.296 84.54H6.184L10.012 93H8.992L8.008 90.78H3.436L2.44 93H1.468ZM3.808 89.928H7.636L5.728 85.644L3.808 89.928ZM13.2553 93.132C12.5193 93.132 11.9393 92.904 11.5153 92.448C11.0913 91.992 10.8793 91.392 10.8793 90.648V86.796H11.8033V90.42C11.8033 91.004 11.9513 91.464 12.2473 91.8C12.5513 92.128 12.9753 92.292 13.5193 92.292C14.0553 92.292 14.4993 92.112 14.8513 91.752C15.2033 91.392 15.3793 90.924 15.3793 90.348V86.796H16.2913V93H15.3793V91.92C14.8753 92.728 14.1673 93.132 13.2553 93.132ZM20.6978 94.944C19.6498 94.944 18.7098 94.656 17.8778 94.08L18.2978 93.36C19.0338 93.888 19.8298 94.152 20.6858 94.152C21.3898 94.152 21.9418 93.96 22.3418 93.576C22.7418 93.2 22.9418 92.656 22.9418 91.944V91.212C22.2858 92.084 21.4738 92.52 20.5058 92.52C19.7298 92.52 19.0498 92.252 18.4658 91.716C17.8818 91.172 17.5898 90.472 17.5898 89.616V89.592C17.5898 88.72 17.8778 88.016 18.4538 87.48C19.0378 86.936 19.7218 86.664 20.5058 86.664C21.4818 86.664 22.2898 87.08 22.9298 87.912V86.796H23.8538V91.92C23.8538 92.856 23.5898 93.588 23.0618 94.116C22.5098 94.668 21.7218 94.944 20.6978 94.944ZM20.6858 91.704C21.2938 91.704 21.8258 91.508 22.2818 91.116C22.7378 90.716 22.9658 90.212 22.9658 89.604V89.58C22.9658 88.964 22.7378 88.46 22.2818 88.068C21.8338 87.676 21.3018 87.48 20.6858 87.48C20.0778 87.48 19.5658 87.672 19.1498 88.056C18.7418 88.44 18.5378 88.944 18.5378 89.568V89.592C18.5378 90.2 18.7458 90.704 19.1618 91.104C19.5858 91.504 20.0938 91.704 20.6858 91.704ZM25.4986 93V86.796H26.4226V87.84C26.6706 87.472 26.9466 87.184 27.2506 86.976C27.5546 86.768 27.9466 86.664 28.4266 86.664C29.3626 86.664 30.0266 87.076 30.4186 87.9C30.9706 87.076 31.6986 86.664 32.6026 86.664C33.3226 86.664 33.8866 86.888 34.2946 87.336C34.7026 87.776 34.9066 88.384 34.9066 89.16V93H33.9826V89.376C33.9826 88.776 33.8386 88.316 33.5506 87.996C33.2706 87.668 32.8786 87.504 32.3746 87.504C31.8946 87.504 31.4866 87.676 31.1506 88.02C30.8226 88.364 30.6586 88.832 30.6586 89.424V93H29.7466V89.352C29.7466 88.768 29.6026 88.316 29.3146 87.996C29.0346 87.668 28.6466 87.504 28.1506 87.504C27.6546 87.504 27.2426 87.688 26.9146 88.056C26.5866 88.424 26.4226 88.892 26.4226 89.46V93H25.4986ZM39.1695 93.144C38.3055 93.144 37.5735 92.844 36.9735 92.244C36.3735 91.636 36.0735 90.86 36.0735 89.916V89.892C36.0735 88.988 36.3535 88.224 36.9135 87.6C37.4815 86.976 38.1935 86.664 39.0495 86.664C39.9375 86.664 40.6415 86.976 41.1615 87.6C41.6815 88.224 41.9415 89.004 41.9415 89.94C41.9415 90.068 41.9375 90.168 41.9295 90.24H37.0095C37.0735 90.896 37.3095 91.412 37.7175 91.788C38.1335 92.156 38.6255 92.34 39.1935 92.34C39.9295 92.34 40.5815 92.048 41.1495 91.464L41.7255 91.98C41.0455 92.756 40.1935 93.144 39.1695 93.144ZM37.0095 89.556H41.0055C40.9575 88.956 40.7615 88.456 40.4175 88.056C40.0815 87.648 39.6175 87.444 39.0255 87.444C38.4895 87.444 38.0335 87.644 37.6575 88.044C37.2895 88.444 37.0735 88.948 37.0095 89.556ZM43.139 93V86.796H44.063V87.876C44.567 87.068 45.275 86.664 46.187 86.664C46.923 86.664 47.503 86.892 47.927 87.348C48.351 87.804 48.563 88.404 48.563 89.148V93H47.639V89.376C47.639 88.792 47.487 88.336 47.183 88.008C46.887 87.672 46.467 87.504 45.923 87.504C45.387 87.504 44.943 87.684 44.591 88.044C44.239 88.404 44.063 88.872 44.063 89.448V93H43.139ZM52.1896 93.108C51.6536 93.108 51.2256 92.968 50.9056 92.688C50.5936 92.4 50.4376 91.956 50.4376 91.356V87.612H49.5736V86.796H50.4376V84.924H51.3616V86.796H53.3296V87.612H51.3616V91.236C51.3616 91.924 51.7096 92.268 52.4056 92.268C52.7096 92.268 53.0096 92.196 53.3056 92.052V92.844C52.9856 93.02 52.6136 93.108 52.1896 93.108ZM57.0813 93.144C56.2173 93.144 55.4853 92.844 54.8853 92.244C54.2853 91.636 53.9853 90.86 53.9853 89.916V89.892C53.9853 88.988 54.2653 88.224 54.8253 87.6C55.3933 86.976 56.1053 86.664 56.9613 86.664C57.8493 86.664 58.5533 86.976 59.0733 87.6C59.5933 88.224 59.8533 89.004 59.8533 89.94C59.8533 90.068 59.8493 90.168 59.8413 90.24H54.9213C54.9853 90.896 55.2213 91.412 55.6293 91.788C56.0453 92.156 56.5373 92.34 57.1053 92.34C57.8413 92.34 58.4933 92.048 59.0613 91.464L59.6373 91.98C58.9573 92.756 58.1053 93.144 57.0813 93.144ZM54.9213 89.556H58.9173C58.8693 88.956 58.6733 88.456 58.3293 88.056C57.9933 87.648 57.5293 87.444 56.9373 87.444C56.4013 87.444 55.9453 87.644 55.5693 88.044C55.2013 88.444 54.9853 88.948 54.9213 89.556ZM63.6549 93.132C62.8629 93.132 62.1709 92.84 61.5789 92.256C60.9869 91.672 60.6909 90.892 60.6909 89.916V89.892C60.6909 88.924 60.9869 88.144 61.5789 87.552C62.1709 86.96 62.8629 86.664 63.6549 86.664C64.6389 86.664 65.4309 87.104 66.0309 87.984V84.24H66.9549V93H66.0309V91.752C65.3909 92.672 64.5989 93.132 63.6549 93.132ZM63.8229 92.304C64.4229 92.304 64.9469 92.08 65.3949 91.632C65.8429 91.176 66.0669 90.6 66.0669 89.904V89.88C66.0669 89.192 65.8429 88.624 65.3949 88.176C64.9469 87.72 64.4229 87.492 63.8229 87.492C63.1989 87.492 62.6789 87.708 62.2629 88.14C61.8469 88.572 61.6389 89.152 61.6389 89.88V89.904C61.6389 90.624 61.8469 91.204 62.2629 91.644C62.6869 92.084 63.2069 92.304 63.8229 92.304ZM77.9933 93.168L76.6733 91.812C75.8653 92.684 74.9493 93.12 73.9253 93.12C73.1653 93.12 72.5333 92.904 72.0293 92.472C71.5333 92.032 71.2853 91.464 71.2853 90.768V90.744C71.2853 89.664 71.9613 88.856 73.3133 88.32C73.0173 87.976 72.8013 87.664 72.6653 87.384C72.5373 87.104 72.4733 86.8 72.4733 86.472V86.448C72.4733 85.888 72.6773 85.416 73.0853 85.032C73.5013 84.648 74.0373 84.456 74.6933 84.456C75.2773 84.456 75.7613 84.64 76.1453 85.008C76.5373 85.376 76.7333 85.824 76.7333 86.352V86.376C76.7333 87.368 76.0733 88.096 74.7533 88.56L76.6733 90.516C77.0413 89.98 77.3773 89.356 77.6813 88.644L78.4613 89.004C78.0533 89.892 77.6493 90.596 77.2493 91.116L78.7133 92.616L77.9933 93.168ZM74.2253 88.02C75.3053 87.644 75.8453 87.112 75.8453 86.424V86.4C75.8453 86.064 75.7333 85.788 75.5093 85.572C75.2853 85.348 75.0013 85.236 74.6573 85.236C74.2813 85.236 73.9733 85.352 73.7333 85.584C73.5013 85.816 73.3853 86.104 73.3853 86.448V86.472C73.3853 86.72 73.4453 86.956 73.5653 87.18C73.6853 87.404 73.9053 87.684 74.2253 88.02ZM73.9973 92.316C74.7333 92.316 75.4333 91.952 76.0973 91.224L73.8533 88.908C72.7813 89.308 72.2453 89.908 72.2453 90.708V90.732C72.2453 91.188 72.4093 91.568 72.7373 91.872C73.0653 92.168 73.4853 92.316 73.9973 92.316ZM85.9384 93.06L82.3264 84.6H83.3824L86.3704 91.836L89.3704 84.6H90.3904L86.7784 93.06H85.9384ZM91.2601 85.44V84.42H92.3161V85.44H91.2601ZM91.3201 93V86.796H92.2441V93H91.3201ZM93.9684 93V86.796H94.8924V88.416C95.1324 87.88 95.4724 87.456 95.9124 87.144C96.3524 86.824 96.8564 86.672 97.4244 86.688V87.684H97.3524C96.6404 87.684 96.0524 87.932 95.5884 88.428C95.1244 88.924 94.8924 89.624 94.8924 90.528V93H93.9684ZM100.488 93.108C99.9517 93.108 99.5237 92.968 99.2037 92.688C98.8917 92.4 98.7357 91.956 98.7357 91.356V87.612H97.8717V86.796H98.7357V84.924H99.6597V86.796H101.628V87.612H99.6597V91.236C99.6597 91.924 100.008 92.268 100.704 92.268C101.008 92.268 101.308 92.196 101.604 92.052V92.844C101.284 93.02 100.912 93.108 100.488 93.108ZM105.123 93.132C104.387 93.132 103.807 92.904 103.383 92.448C102.959 91.992 102.747 91.392 102.747 90.648V86.796H103.671V90.42C103.671 91.004 103.819 91.464 104.115 91.8C104.419 92.128 104.843 92.292 105.387 92.292C105.923 92.292 106.367 92.112 106.719 91.752C107.071 91.392 107.247 90.924 107.247 90.348V86.796H108.159V93H107.247V91.92C106.743 92.728 106.035 93.132 105.123 93.132ZM111.666 93.132C111.042 93.132 110.498 92.964 110.034 92.628C109.578 92.284 109.35 91.808 109.35 91.2V91.176C109.35 90.544 109.59 90.052 110.07 89.7C110.558 89.348 111.202 89.172 112.002 89.172C112.634 89.172 113.27 89.26 113.91 89.436V89.22C113.91 88.668 113.75 88.248 113.43 87.96C113.11 87.672 112.654 87.528 112.062 87.528C111.438 87.528 110.81 87.68 110.178 87.984L109.902 87.228C110.63 86.884 111.382 86.712 112.158 86.712C113.038 86.712 113.706 86.94 114.162 87.396C114.586 87.82 114.798 88.424 114.798 89.208V93H113.91V92.064C113.366 92.776 112.618 93.132 111.666 93.132ZM111.846 92.4C112.43 92.4 112.922 92.244 113.322 91.932C113.722 91.612 113.922 91.208 113.922 90.72V90.12C113.298 89.944 112.69 89.856 112.098 89.856C111.522 89.856 111.074 89.972 110.754 90.204C110.442 90.436 110.286 90.748 110.286 91.14V91.164C110.286 91.54 110.438 91.84 110.742 92.064C111.046 92.288 111.414 92.4 111.846 92.4ZM116.431 93V84.24H117.355V93H116.431ZM122.413 93V84.6H126.025C127.057 84.6 127.853 84.88 128.413 85.44C128.845 85.872 129.061 86.424 129.061 87.096V87.12C129.061 87.792 128.853 88.34 128.437 88.764C128.021 89.18 127.469 89.448 126.781 89.568L129.361 93H128.197L125.761 89.736H123.361V93H122.413ZM123.361 88.884H125.941C126.581 88.884 127.101 88.728 127.501 88.416C127.901 88.104 128.101 87.684 128.101 87.156V87.132C128.101 86.612 127.913 86.208 127.537 85.92C127.161 85.624 126.633 85.476 125.953 85.476H123.361V88.884ZM133.104 93.144C132.24 93.144 131.508 92.844 130.908 92.244C130.308 91.636 130.008 90.86 130.008 89.916V89.892C130.008 88.988 130.288 88.224 130.848 87.6C131.416 86.976 132.128 86.664 132.984 86.664C133.872 86.664 134.576 86.976 135.096 87.6C135.616 88.224 135.876 89.004 135.876 89.94C135.876 90.068 135.872 90.168 135.864 90.24H130.944C131.008 90.896 131.244 91.412 131.652 91.788C132.068 92.156 132.56 92.34 133.128 92.34C133.864 92.34 134.516 92.048 135.084 91.464L135.66 91.98C134.98 92.756 134.128 93.144 133.104 93.144ZM130.944 89.556H134.94C134.892 88.956 134.696 88.456 134.352 88.056C134.016 87.648 133.552 87.444 132.96 87.444C132.424 87.444 131.968 87.644 131.592 88.044C131.224 88.444 131.008 88.948 130.944 89.556ZM138.921 93.132C138.297 93.132 137.753 92.964 137.289 92.628C136.833 92.284 136.605 91.808 136.605 91.2V91.176C136.605 90.544 136.845 90.052 137.325 89.7C137.813 89.348 138.457 89.172 139.257 89.172C139.889 89.172 140.525 89.26 141.165 89.436V89.22C141.165 88.668 141.005 88.248 140.685 87.96C140.365 87.672 139.909 87.528 139.317 87.528C138.693 87.528 138.065 87.68 137.433 87.984L137.157 87.228C137.885 86.884 138.637 86.712 139.413 86.712C140.293 86.712 140.961 86.94 141.417 87.396C141.841 87.82 142.053 88.424 142.053 89.208V93H141.165V92.064C140.621 92.776 139.873 93.132 138.921 93.132ZM139.101 92.4C139.685 92.4 140.177 92.244 140.577 91.932C140.977 91.612 141.177 91.208 141.177 90.72V90.12C140.553 89.944 139.945 89.856 139.353 89.856C138.777 89.856 138.329 89.972 138.009 90.204C137.697 90.436 137.541 90.748 137.541 91.14V91.164C137.541 91.54 137.693 91.84 137.997 92.064C138.301 92.288 138.669 92.4 139.101 92.4ZM143.686 93V84.24H144.61V93H143.686ZM146.359 85.44V84.42H147.415V85.44H146.359ZM146.419 93V86.796H147.343V93H146.419ZM151.143 93.108C150.607 93.108 150.179 92.968 149.859 92.688C149.547 92.4 149.391 91.956 149.391 91.356V87.612H148.527V86.796H149.391V84.924H150.315V86.796H152.283V87.612H150.315V91.236C150.315 91.924 150.663 92.268 151.359 92.268C151.663 92.268 151.963 92.196 152.259 92.052V92.844C151.939 93.02 151.567 93.108 151.143 93.108ZM156.151 91.968L158.143 86.796H159.127L156.523 93.204C156.267 93.836 155.975 94.284 155.647 94.548C155.327 94.82 154.931 94.956 154.459 94.956C154.011 94.956 153.571 94.852 153.139 94.644L153.451 93.912C153.747 94.064 154.071 94.14 154.423 94.14C154.711 94.14 154.947 94.052 155.131 93.876C155.323 93.708 155.511 93.408 155.695 92.976L152.875 86.796H153.895L156.151 91.968Z" fill="white"/>
</svg>
