<svg width="188" height="47" viewBox="0 0 188 47" fill="none" xmlns="http://www.w3.org/2000/svg">
<rect x="1" y="1" width="186" height="45" rx="15" stroke="white" stroke-width="2"/>
<path d="M71.596 29.216C69.652 29.216 68.074 28.604 66.862 27.38C65.662 26.144 65.062 24.596 65.062 22.736V22.7C65.062 20.9 65.674 19.364 66.898 18.092C68.134 16.82 69.688 16.184 71.56 16.184C72.604 16.184 73.498 16.328 74.242 16.616C74.998 16.892 75.718 17.318 76.402 17.894L74.998 19.568C74.47 19.124 73.936 18.794 73.396 18.578C72.856 18.35 72.214 18.236 71.47 18.236C70.33 18.236 69.364 18.674 68.572 19.55C67.78 20.414 67.384 21.452 67.384 22.664V22.7C67.384 24.008 67.78 25.088 68.572 25.94C69.364 26.78 70.396 27.2 71.668 27.2C72.844 27.2 73.858 26.882 74.71 26.246V23.906H71.488V21.962H76.852V27.254C75.304 28.562 73.552 29.216 71.596 29.216ZM84.0012 29.216C82.5612 29.216 81.3612 28.742 80.4012 27.794C79.4412 26.834 78.9612 25.67 78.9612 24.302V24.266C78.9612 22.886 79.4472 21.716 80.4192 20.756C81.3912 19.784 82.5972 19.298 84.0372 19.298C85.4892 19.298 86.6952 19.778 87.6552 20.738C88.6152 21.686 89.0952 22.85 89.0952 24.23V24.266C89.0952 25.622 88.6092 26.786 87.6372 27.758C86.6652 28.73 85.4532 29.216 84.0012 29.216ZM84.0372 27.308C84.9012 27.308 85.5972 27.02 86.1252 26.444C86.6532 25.856 86.9172 25.142 86.9172 24.302V24.266C86.9172 23.414 86.6412 22.694 86.0892 22.106C85.5372 21.506 84.8412 21.206 84.0012 21.206C83.1492 21.206 82.4592 21.5 81.9312 22.088C81.4032 22.664 81.1392 23.378 81.1392 24.23V24.266C81.1392 25.106 81.4152 25.826 81.9672 26.426C82.5192 27.014 83.2092 27.308 84.0372 27.308ZM95.8313 29.216C94.3913 29.216 93.1913 28.742 92.2313 27.794C91.2713 26.834 90.7913 25.67 90.7913 24.302V24.266C90.7913 22.886 91.2773 21.716 92.2493 20.756C93.2213 19.784 94.4273 19.298 95.8673 19.298C97.3193 19.298 98.5253 19.778 99.4853 20.738C100.445 21.686 100.925 22.85 100.925 24.23V24.266C100.925 25.622 100.439 26.786 99.4673 27.758C98.4953 28.73 97.2833 29.216 95.8313 29.216ZM95.8673 27.308C96.7313 27.308 97.4273 27.02 97.9553 26.444C98.4833 25.856 98.7473 25.142 98.7473 24.302V24.266C98.7473 23.414 98.4713 22.694 97.9193 22.106C97.3673 21.506 96.6713 21.206 95.8313 21.206C94.9793 21.206 94.2893 21.5 93.7613 22.088C93.2333 22.664 92.9693 23.378 92.9693 24.23V24.266C92.9693 25.106 93.2453 25.826 93.7973 26.426C94.3493 27.014 95.0393 27.308 95.8673 27.308ZM107.373 31.916C105.777 31.916 104.361 31.538 103.125 30.782L103.935 29.144C105.015 29.804 106.143 30.134 107.319 30.134C108.303 30.134 109.047 29.888 109.551 29.396C110.067 28.916 110.325 28.196 110.325 27.236V26.516C109.425 27.668 108.309 28.244 106.977 28.244C105.801 28.244 104.787 27.842 103.935 27.038C103.083 26.222 102.657 25.142 102.657 23.798V23.762C102.657 22.418 103.083 21.338 103.935 20.522C104.787 19.706 105.801 19.298 106.977 19.298C108.297 19.298 109.407 19.838 110.307 20.918V19.496H112.485V27.056C112.485 28.64 112.083 29.834 111.279 30.638C110.427 31.49 109.125 31.916 107.373 31.916ZM107.553 26.39C108.321 26.39 108.975 26.144 109.515 25.652C110.067 25.16 110.343 24.536 110.343 23.78V23.744C110.343 22.988 110.067 22.37 109.515 21.89C108.975 21.398 108.321 21.152 107.553 21.152C106.785 21.152 106.143 21.392 105.627 21.872C105.111 22.352 104.853 22.976 104.853 23.744V23.78C104.853 24.548 105.111 25.178 105.627 25.67C106.155 26.15 106.797 26.39 107.553 26.39ZM115.328 29V15.86H117.524V29H115.328ZM124.726 29.216C123.334 29.216 122.17 28.76 121.234 27.848C120.31 26.924 119.848 25.736 119.848 24.284V24.248C119.848 22.856 120.286 21.686 121.162 20.738C122.038 19.778 123.148 19.298 124.492 19.298C125.932 19.298 127.048 19.79 127.84 20.774C128.644 21.746 129.046 22.958 129.046 24.41C129.046 24.53 129.034 24.734 129.01 25.022H122.026C122.146 25.79 122.452 26.384 122.944 26.804C123.436 27.224 124.042 27.434 124.762 27.434C125.686 27.434 126.544 27.056 127.336 26.3L128.614 27.434C127.606 28.622 126.31 29.216 124.726 29.216ZM122.008 23.582H126.886C126.814 22.85 126.568 22.25 126.148 21.782C125.728 21.314 125.17 21.08 124.474 21.08C123.802 21.08 123.244 21.308 122.8 21.764C122.368 22.22 122.104 22.826 122.008 23.582ZM136.882 29V16.4H141.85C143.314 16.4 144.478 16.784 145.342 17.552C146.206 18.32 146.638 19.34 146.638 20.612V20.648C146.638 22.004 146.158 23.06 145.198 23.816C144.25 24.572 143.05 24.95 141.598 24.95H139.096V29H136.882ZM139.096 22.952H141.67C142.498 22.952 143.158 22.742 143.65 22.322C144.142 21.902 144.388 21.362 144.388 20.702V20.666C144.388 19.934 144.148 19.376 143.668 18.992C143.188 18.608 142.522 18.416 141.67 18.416H139.096V22.952ZM148.761 29V15.86H150.957V29H148.761ZM156.54 29.198C155.592 29.198 154.788 28.94 154.128 28.424C153.48 27.908 153.156 27.188 153.156 26.264V26.228C153.156 25.22 153.51 24.458 154.218 23.942C154.938 23.426 155.898 23.168 157.098 23.168C157.974 23.168 158.826 23.3 159.654 23.564V23.33C159.654 21.95 158.868 21.26 157.296 21.26C156.432 21.26 155.526 21.458 154.578 21.854L153.984 20.144C155.196 19.628 156.396 19.37 157.584 19.37C159 19.37 160.05 19.724 160.734 20.432C161.418 21.116 161.76 22.094 161.76 23.366V29H159.636V27.812C158.868 28.736 157.836 29.198 156.54 29.198ZM157.152 27.614C157.884 27.614 158.49 27.428 158.97 27.056C159.45 26.672 159.69 26.18 159.69 25.58V24.932C159.042 24.68 158.322 24.554 157.53 24.554C156.822 24.554 156.27 24.692 155.874 24.968C155.49 25.244 155.298 25.634 155.298 26.138V26.174C155.298 26.618 155.472 26.972 155.82 27.236C156.168 27.488 156.612 27.614 157.152 27.614ZM168.12 26.552L170.604 19.496H172.872L169.092 29.252C168.708 30.236 168.282 30.926 167.814 31.322C167.346 31.73 166.728 31.934 165.96 31.934C165.156 31.934 164.406 31.736 163.71 31.34L164.448 29.738C164.904 29.978 165.33 30.098 165.726 30.098C166.05 30.098 166.308 30.014 166.5 29.846C166.704 29.69 166.896 29.414 167.076 29.018L163.116 19.496H165.456L168.12 26.552Z" fill="white"/>
<path d="M41.4537 21.9358L25.6698 5.94024L45.7516 17.592L41.4537 21.9358ZM21.5516 5C20.6213 5.49151 20 6.3878 20 7.55125V39.4488C20 40.6122 20.6225 41.5085 21.5516 42L39.9033 23.496L21.5516 5ZM51.9592 21.3067L47.7472 18.8422L43.0488 23.504L47.7472 28.1659L52.045 25.7014C53.3323 24.6686 53.3323 22.3406 51.9592 21.3067ZM25.671 41.069L45.7527 29.4172L41.4549 25.0734L25.671 41.069Z" fill="white"/>
</svg>
