<svg width="262" height="59" viewBox="0 0 262 59" fill="none" xmlns="http://www.w3.org/2000/svg">
<path fill-rule="evenodd" clip-rule="evenodd" d="M39.7318 0.20414C39.7927 0.316491 47.4261 13.5388 56.6951 29.5871L73.5476 58.7658L76.7434 58.7851C78.5012 58.7956 79.9392 58.779 79.9391 58.7481C79.9391 58.7171 72.3192 45.4948 63.0061 29.3652L46.0731 0.0385351L42.8472 0.0192306L39.6212 0L39.7318 0.20414ZM16.9439 29.4206L0 58.7658L3.15125 58.7851C4.88444 58.7957 6.33779 58.7908 6.38092 58.7743C6.42411 58.7577 12.6302 48.0566 20.1723 34.9941C27.7144 21.9316 33.9037 11.2447 33.9262 11.2454C33.9487 11.2463 37.4679 17.3122 41.7466 24.7253L49.5261 38.2038L43.3085 38.2408L37.091 38.2778L35.5107 41.0145C34.6417 42.5196 33.9305 43.776 33.9304 43.8063C33.9302 43.8367 38.1788 43.87 43.3716 43.8802L52.813 43.899L57.1114 51.3493L61.4099 58.7995L64.6091 58.8011C66.3687 58.802 67.8083 58.7805 67.8083 58.7532C67.8083 58.6771 33.9726 0.0792891 33.9275 0.0772921C33.9057 0.0763306 26.2631 13.2809 16.9439 29.4206ZM184.789 8.51367C182.452 8.69155 180.66 9.89198 180.018 11.7083C179.816 12.2784 179.737 13.6599 179.868 14.2953C179.997 14.9136 180.332 15.5237 180.806 16.0015C181.569 16.7699 182.452 17.1995 184.273 17.6876C184.884 17.8511 185.699 18.0701 186.086 18.1742C186.965 18.4112 187.678 18.7406 187.837 18.9834C187.996 19.2261 187.994 19.7394 187.832 19.9862C187.548 20.4201 186.674 20.6167 185.564 20.4962C184.264 20.3549 183.081 19.9117 181.912 19.1275C181.631 18.9389 181.376 18.7937 181.347 18.8049C181.317 18.8162 180.79 19.4244 180.174 20.1567L179.055 21.488L179.297 21.6961C180.398 22.6419 182.09 23.4131 183.828 23.7613C184.935 23.9832 187.078 23.9989 187.972 23.7916C190.251 23.2634 191.684 21.9584 192.042 20.0856C192.342 18.5191 191.992 17.2251 191.015 16.2903C190.174 15.4852 189.097 15.0093 186.888 14.4667C184.81 13.9562 184.269 13.7363 184.05 13.3116C183.822 12.8708 184.006 12.3349 184.474 12.0798C184.848 11.8751 186.216 11.8968 187.047 12.1207C187.768 12.3147 188.69 12.7281 189.264 13.115L189.66 13.3812L190.691 11.9272L191.723 10.473L191.537 10.3136C191.172 9.99968 190.228 9.45597 189.611 9.20427C188.203 8.63061 186.485 8.38453 184.789 8.51367ZM102.478 9.19155C102.224 9.78481 96.4562 23.4655 96.3813 23.6526C96.3515 23.7271 96.7877 23.7421 98.5158 23.7265L100.688 23.7069L101.233 22.3571L101.778 21.0073H104.678H107.578L108.122 22.3756L108.665 23.7439H110.871C112.085 23.7439 113.078 23.7261 113.078 23.7043C113.078 23.6721 107.917 11.4308 106.96 9.19155L106.699 8.58135H104.719H102.739L102.478 9.19155ZM200.589 8.74777C200.554 8.83926 199.136 12.2093 197.439 16.2366C195.742 20.2639 194.337 23.6011 194.316 23.6526C194.287 23.7271 194.724 23.7421 196.452 23.7265L198.624 23.7069L199.151 22.3756L199.678 21.0442L202.596 21.0249L205.513 21.0056L206.057 22.3748L206.601 23.7439H208.807C210.021 23.7439 211.013 23.7288 211.013 23.7105C211.013 23.6921 209.595 20.3221 207.861 16.2217C206.127 12.1212 204.693 8.72469 204.673 8.6738C204.645 8.60302 204.169 8.58135 202.645 8.58135H200.654L200.589 8.74777ZM116.184 16.2366V23.7439H121.88H127.576V21.9325V20.1211L123.97 20.1019L120.364 20.0827L120.345 14.406L120.326 8.72928H118.255H116.184V16.2366ZM128.094 10.5414V12.3535H130.313H132.532V18.0487V23.7439H134.603H136.674V18.0487V12.3535H138.93H141.186V10.5414V8.72928H134.64H128.094V10.5414ZM143.351 8.82069C143.372 8.8721 144.657 10.9937 146.208 13.5354L149.027 18.1567V20.9515V23.7463L151.08 23.7266L153.132 23.7069L153.152 20.849L153.171 17.9909L155.981 13.3944C157.526 10.8662 158.791 8.78186 158.791 8.76249C158.791 8.74303 157.752 8.73593 156.482 8.74673L154.174 8.76626L152.655 11.4466C151.819 12.9207 151.111 14.1189 151.081 14.1093C151.051 14.0996 150.351 12.8934 149.524 11.429L148.022 8.76626L145.668 8.74673C143.795 8.7312 143.322 8.74629 143.351 8.82069ZM161.75 16.2378V23.7463L163.802 23.7266L165.855 23.7069L165.892 19.6372L165.929 15.5675L169.11 19.6372L172.291 23.7069L174.084 23.7268L175.878 23.7466V16.2379V8.72928H173.844H171.811L171.792 12.6761L171.773 16.6229L168.703 12.6761L165.634 8.72928H163.692H161.75V16.2378ZM214.12 16.2366V23.7439H216.191H218.262V21.451V19.1582H219.187H220.111L221.64 21.451L223.168 23.7439H225.524C226.819 23.7439 227.879 23.7282 227.879 23.709C227.879 23.6775 225.994 20.908 224.798 19.181L224.327 18.5011L224.864 18.2195C225.478 17.8975 226.347 17.1123 226.702 16.5589C227.258 15.6914 227.524 14.3619 227.377 13.1729C227.159 11.3989 226.329 10.2013 224.81 9.46573C223.387 8.77691 222.948 8.72928 218.024 8.72928H214.12V16.2366ZM231.281 16.2378V23.7463L233.334 23.7266L235.386 23.7069L235.405 16.2181L235.424 8.72928H233.353H231.281V16.2378ZM239.788 16.2353V23.7439H241.821H243.855L243.874 19.6249L243.893 15.5058L247.11 19.6249L250.328 23.7439H252.122H253.916V16.2366V8.72928H251.882H249.848V12.6555C249.848 14.9171 249.82 16.5713 249.782 16.5571C249.746 16.5435 248.354 14.7851 246.69 12.6494L243.664 8.76626L241.726 8.74651L239.788 8.72684V16.2353ZM221.853 12.3923C222.675 12.6026 223.155 13.0999 223.258 13.8487C223.338 14.43 223.18 14.9138 222.782 15.31C222.243 15.8469 221.972 15.9038 219.955 15.9038H218.262V14.0916V12.2795H219.837C221.006 12.2795 221.526 12.3086 221.853 12.3923ZM105.559 15.7305C105.992 16.8352 106.346 17.7588 106.346 17.783C106.346 17.8071 105.597 17.8268 104.682 17.8268C103.767 17.8268 103.018 17.8011 103.018 17.7696C103.018 17.7381 103.354 16.8644 103.764 15.828C104.175 14.7916 104.543 13.8634 104.581 13.7652C104.621 13.6638 104.677 13.6159 104.712 13.6543C104.745 13.6914 105.127 14.6257 105.559 15.7305ZM203.494 15.7384C203.927 16.8475 204.282 17.7711 204.282 17.7909C204.282 17.8106 203.533 17.8268 202.618 17.8268C201.567 17.8268 200.954 17.7997 200.954 17.7535C200.954 17.7131 201.29 16.8395 201.701 15.812C202.113 14.7844 202.48 13.8634 202.518 13.7652C202.556 13.6652 202.613 13.6165 202.646 13.6543C202.679 13.6914 203.06 14.6293 203.494 15.7384ZM22.8871 40.1599C17.0397 50.2871 12.2356 58.6246 12.2114 58.6878C12.1719 58.7907 12.5043 58.8025 15.3744 58.8007L18.5815 58.7987L26.8661 44.4429C31.4226 36.5473 35.5118 29.4596 35.9532 28.6926L36.7557 27.298L35.1513 24.5225C34.2688 22.9959 33.5405 21.7469 33.5327 21.7469C33.525 21.7469 28.7345 30.0328 22.8871 40.1599ZM236.735 34.9556C234.636 35.3351 233.035 36.7231 232.607 38.5367C232.452 39.1895 232.491 40.4067 232.684 40.9735C233.067 42.0998 233.885 42.8956 235.261 43.4809C235.748 43.6884 236.416 43.8871 238.613 44.4788C239.679 44.7659 240.168 44.969 240.435 45.2348C240.638 45.4373 240.675 45.5284 240.675 45.8218C240.675 46.2629 240.484 46.5406 240.066 46.7082C239.348 46.9958 237.917 46.9158 236.737 46.522C235.936 46.2547 235.486 46.0311 234.696 45.509L234.079 45.1015L233.845 45.3858C233.716 45.5421 233.206 46.1536 232.71 46.7446L231.808 47.8191L231.97 47.9925C232.2 48.2384 233.218 48.901 233.858 49.2207C234.661 49.6215 235.804 49.9809 236.838 50.1572C237.615 50.2895 237.95 50.3075 239.048 50.2753C240.592 50.2302 241.256 50.0888 242.296 49.5843C243.527 48.987 244.446 47.8695 244.752 46.5987C244.902 45.9764 244.87 44.6607 244.691 44.1132C244.376 43.148 243.708 42.4188 242.611 41.8457C241.759 41.4003 241.144 41.1883 239.659 40.829C237.36 40.2728 236.785 39.9909 236.705 39.3808C236.651 38.9725 236.825 38.6551 237.219 38.4455C237.652 38.215 238.805 38.2204 239.714 38.4572C240.406 38.6377 241.51 39.1307 242.044 39.4981C242.233 39.6281 242.397 39.7228 242.409 39.7087C242.421 39.6946 242.888 39.0364 243.446 38.246L244.461 36.8089L244.288 36.6722C243.895 36.3614 242.907 35.7883 242.403 35.5786C241.701 35.2864 240.649 35.0117 239.864 34.9153C239.004 34.8099 237.429 34.8302 236.735 34.9556ZM102.698 35.0407C102.662 35.1004 96.5381 49.6219 96.4281 49.9086L96.3642 50.075H98.5318H100.699L101.235 48.7067L101.77 47.3383H104.641C106.849 47.3383 107.529 47.3597 107.585 47.4308C107.625 47.4817 107.882 48.0974 108.156 48.7991L108.655 50.075H110.866C112.082 50.075 113.078 50.0621 113.078 50.0462C113.078 50.0303 111.652 46.6438 109.909 42.5204L106.74 35.0234L104.736 35.0037C103.634 34.9929 102.717 35.0096 102.698 35.0407ZM135.047 42.4584C133.318 46.5679 131.892 49.9633 131.878 50.0038C131.862 50.0516 132.608 50.0704 134.019 50.0576L136.185 50.038L136.718 48.7067L137.251 47.3753H140.162H143.072L143.6 48.7067L144.127 50.038L146.354 50.0576L148.582 50.0772L148.44 49.7248C148.362 49.5309 146.933 46.1438 145.263 42.1979L142.228 35.0234L140.209 35.0049L138.19 34.9865L135.047 42.4584ZM219.56 35.2256C219.505 35.3584 218.105 38.679 216.45 42.6047C214.794 46.5303 213.411 49.8171 213.375 49.9086L213.31 50.075H215.479H217.648L218.187 48.7067L218.725 47.3383H221.625H224.524L225.068 48.7067L225.611 50.075H227.817C229.031 50.075 230.022 50.0501 230.019 50.0195C230.017 49.989 228.592 46.6024 226.852 42.4937L223.69 35.0234L221.676 35.0037L219.661 34.984L219.56 35.2256ZM116.184 42.5677V50.075H118.256H120.327V48.128V46.181L121.078 45.3501C121.692 44.6718 121.847 44.5371 121.923 44.616C121.975 44.6691 122.831 45.9109 123.826 47.3753L125.635 50.038L128.125 50.0575L130.615 50.077L130.301 49.6137C130.128 49.359 128.824 47.453 127.402 45.3783C125.98 43.3036 124.814 41.5697 124.809 41.525C124.805 41.4804 126.017 40.0687 127.502 38.3878C128.987 36.7069 130.245 35.2706 130.298 35.196C130.391 35.0653 130.307 35.0604 127.958 35.0604H125.52L122.942 38.0991L120.364 41.1378L120.344 38.0991L120.325 35.0604H118.255H116.184V42.5677ZM151.69 42.5676V50.0871L155.296 50.0536C159.229 50.017 159.501 49.9923 160.803 49.5562C163.333 48.7086 165.072 46.9118 165.676 44.5198C165.899 43.6382 165.953 41.9174 165.786 41.0273C165.201 37.9144 162.97 35.8559 159.506 35.233C158.957 35.1343 158.147 35.105 155.259 35.0795L151.69 35.0481V42.5676ZM169.738 42.5672V50.075H175.804H181.869V48.2999V46.5247H177.838H173.807V45.3413V44.1579H177.394H180.982V42.5307V40.9035H177.394H173.807V39.7577V38.6119L177.783 38.5928L181.758 38.5736V36.8355V35.0974L175.748 35.0784L169.738 35.0595V42.5672ZM185.642 42.5666V50.075H187.676H189.71V45.7739V41.4728L191.615 44.4028C192.663 46.0142 193.542 47.3257 193.57 47.317C193.598 47.3085 194.48 45.987 195.53 44.3804L197.44 41.4595L197.459 45.7672L197.478 50.075H199.512H201.545V42.5677V35.0604H199.373H197.2L195.434 37.9413C194.462 39.5257 193.64 40.8145 193.606 40.8052C193.572 40.7959 192.755 39.5078 191.792 37.9428L190.039 35.0974L187.841 35.0777L185.642 35.0582V42.5666ZM205.984 42.5677V50.075H208.055H210.126V42.5677V35.0604H208.055H205.984V42.5677ZM246.595 35.213C246.64 35.2969 247.923 37.4092 249.446 39.907L252.215 44.4484V47.2617V50.075H254.286H256.357V47.2412V44.4074L259.137 39.8634C260.667 37.3641 261.949 35.261 261.988 35.1898C262.054 35.0678 261.925 35.0604 259.744 35.0609L257.429 35.0614L256.098 37.4054C255.366 38.6947 254.664 39.9284 254.539 40.1473L254.311 40.5452L252.763 37.803L251.216 35.0608L248.865 35.0606L246.514 35.0604L246.595 35.213ZM158.702 38.8753C160.607 39.2653 161.671 40.6007 161.675 42.6076C161.677 43.7746 161.332 44.6521 160.608 45.3223C159.742 46.124 158.895 46.3736 157.034 46.3756L155.832 46.3768V42.5677V38.7586H156.982C157.739 38.7586 158.326 38.7984 158.702 38.8753ZM105.569 42.1199C105.997 43.2047 106.346 44.107 106.346 44.1251C106.346 44.1431 105.597 44.1579 104.682 44.1579C103.767 44.1579 103.018 44.133 103.018 44.1024C103.018 44.0719 103.389 43.1197 103.842 41.9863C104.416 40.5521 104.686 39.9594 104.729 40.0366C104.763 40.0976 105.141 41.0351 105.569 42.1199ZM141.003 41.9768C141.437 43.0747 141.809 44.0146 141.83 44.0655C141.859 44.1378 141.504 44.1579 140.195 44.1579C139.14 44.1579 138.523 44.1309 138.523 44.0846C138.523 44.0442 138.86 43.1706 139.271 42.1431C139.682 41.1155 140.049 40.1953 140.087 40.0981C140.124 40.001 140.168 39.9348 140.184 39.9511C140.201 39.9673 140.569 40.879 141.003 41.9768ZM222.504 42.0695C222.938 43.1786 223.292 44.1022 223.292 44.122C223.292 44.1417 222.543 44.1579 221.628 44.1579C220.713 44.1579 219.964 44.133 219.964 44.1024C219.963 43.9441 221.618 39.9409 221.663 39.9924C221.692 40.0257 222.07 40.9604 222.504 42.0695ZM43.6638 47.6402C43.2164 47.7494 42.9055 47.9796 42.7378 48.326C42.4498 48.921 42.5975 49.5749 43.0949 49.9071C43.3924 50.1059 44.0538 50.1373 44.3784 49.968C44.5681 49.869 44.5818 49.8719 44.5818 50.0111C44.5818 50.0932 44.4845 50.2576 44.3656 50.3766C44.1063 50.6358 43.7841 50.6604 43.3755 50.4521L43.0995 50.3114L42.8685 50.6472L42.6374 50.983L42.814 51.1161C43.0873 51.3223 43.5681 51.4269 44.0895 51.3937C44.7029 51.3547 45.0585 51.1281 45.3595 50.5848C45.5654 50.2131 45.5804 50.1331 45.5804 49.4093C45.5804 48.7173 45.5603 48.5977 45.3963 48.3111C45.079 47.757 44.3469 47.4735 43.6638 47.6402ZM40.4489 47.7845C40.1896 47.861 39.9666 47.9345 39.9532 47.9479C39.9028 47.9983 40.1254 48.7062 40.1885 48.6963C40.2248 48.6906 40.3627 48.663 40.495 48.6349L40.7354 48.584V49.9582V51.3324H41.2532H41.7709V49.4833V47.6342L41.3456 47.6398C41.1117 47.6429 40.7081 47.7081 40.4489 47.7845ZM46.9488 47.7787C46.8064 47.8547 46.5911 48.0207 46.4703 48.1478L46.2506 48.3788L46.5813 48.6659L46.9118 48.9528L47.0968 48.7789C47.472 48.4263 48.0038 48.3947 48.0751 48.721C48.1439 49.0361 47.9601 49.2627 47.091 49.9346L46.2091 50.6162V50.9743V51.3324H47.6885H49.1679V50.9256V50.5188L48.4097 50.5149C47.6731 50.5112 47.6568 50.5075 47.8354 50.3855C48.2736 50.0863 48.7735 49.6409 48.9275 49.4124C49.2722 48.9011 49.0791 48.1158 48.5315 47.8018C48.1527 47.5847 47.3352 47.5727 46.9488 47.7787ZM50.1407 47.7938L49.6711 47.9397L49.7193 48.2122C49.8114 48.7324 49.8161 48.7383 50.0766 48.6636C50.5172 48.5373 50.4994 48.4825 50.4994 49.9641V51.3324H50.9802H51.461V49.4833V47.6342L51.0356 47.6412C50.8017 47.6449 50.399 47.7136 50.1407 47.7938ZM44.4813 48.5625C44.6845 48.7656 44.6788 49.0414 44.467 49.2577C44.2978 49.4305 43.8463 49.3937 43.6846 49.194C43.5059 48.9733 43.5097 48.8099 43.6996 48.5687C43.9024 48.3109 44.2271 48.3083 44.4813 48.5625Z" fill="white"/>
</svg>
