<svg width="48" height="50" viewBox="0 0 48 50" fill="none" xmlns="http://www.w3.org/2000/svg">
<path fill-rule="evenodd" clip-rule="evenodd" d="M10.5952 16.89C5.17131 26.1794 0.731091 33.7847 0.728036 33.7905C0.724967 33.7963 1.5667 33.8011 2.59853 33.8011H4.47462L12.4647 20.1178C16.8592 12.592 20.4581 6.43788 20.4623 6.44201C20.4665 6.44616 22.5106 9.94417 25.0046 14.2154L29.5394 21.9812L25.9246 21.9848L22.3099 21.9883L21.385 23.5725C20.8763 24.4438 20.4572 25.171 20.4538 25.1885L20.4476 25.2202L25.9412 25.2237L31.4348 25.2273L33.9381 29.5142L36.4413 33.8011H38.318H40.1948L40.1525 33.727C40.0761 33.5932 20.5059 0.0784133 20.481 0.0387268L20.4567 0L10.5952 16.89ZM23.7792 0.0117846C23.7818 0.0184037 28.222 7.62371 33.6462 16.9125L43.5084 33.8011H45.3822H47.256L47.0854 33.5082C46.9915 33.3472 42.5516 25.7435 37.2189 16.6111L27.5231 0.00688727L25.6488 0.0033025C24.6167 0.00134076 23.7766 0.00513723 23.7792 0.0117846ZM14.0122 23.1324C10.5938 28.9862 7.79482 33.7814 7.79221 33.7884C7.7894 33.7959 8.557 33.8011 9.66279 33.8011H11.5381L16.8184 24.7585C19.7225 19.7851 22.0983 15.7062 22.0979 15.6943C22.0973 15.6746 20.2643 12.5258 20.2385 12.5002C20.2324 12.4941 17.4305 17.2786 14.0122 23.1324ZM26.0638 27.3939C25.8315 27.4541 25.6429 27.5951 25.545 27.7818C25.3454 28.1625 25.4692 28.5901 25.8283 28.7596C25.9382 28.8115 25.9412 28.812 26.1178 28.8119C26.3233 28.8117 26.3987 28.7897 26.5282 28.6924C26.6135 28.6282 26.6187 28.6352 26.5802 28.7632C26.5455 28.8788 26.4877 28.9519 26.3957 28.9964C26.3224 29.0318 26.3068 29.0341 26.1831 29.0277C26.0724 29.022 26.0332 29.0132 25.9543 28.9767C25.9019 28.9525 25.8404 28.9195 25.8176 28.9035L25.7761 28.8743L25.6225 29.1022L25.4689 29.3302L25.5043 29.3585C25.5658 29.4077 25.7553 29.495 25.8854 29.5339C25.9976 29.5675 26.0346 29.5715 26.2391 29.5725C26.4172 29.5733 26.4879 29.5679 26.5603 29.5482C26.8588 29.4668 27.0962 29.2557 27.2089 28.9715C27.2597 28.8435 27.2861 28.7295 27.3037 28.563C27.3448 28.1733 27.2445 27.8137 27.0389 27.6133C26.9308 27.5081 26.7601 27.4153 26.6209 27.3861C26.4791 27.3564 26.1931 27.3604 26.0638 27.3939ZM28.3125 27.3808C28.186 27.3991 28.0426 27.4541 27.9321 27.5267C27.8315 27.5928 27.6264 27.7968 27.635 27.8222C27.6375 27.8296 27.7259 27.9071 27.8314 27.9944L28.0234 28.1531L28.1304 28.0506C28.2883 27.8994 28.4014 27.8536 28.5321 27.8879C28.6701 27.9241 28.7289 28.0406 28.684 28.1887C28.6548 28.2851 28.5218 28.4057 28.0581 28.7563L27.6166 29.0901V29.3145V29.5389H28.4659H29.3152V29.2992V29.0594L28.8738 29.0557L28.4324 29.052L28.6775 28.8826C29.1039 28.588 29.2504 28.4158 29.2882 28.1648C29.365 27.654 28.9163 27.2933 28.3125 27.3808ZM24.2002 27.4787C24.0367 27.5239 23.9011 27.5629 23.899 27.5654C23.8946 27.5709 24.0173 28.0736 24.0249 28.0812C24.0278 28.0841 24.1025 28.0703 24.1909 28.0505C24.2793 28.0308 24.3572 28.0146 24.364 28.0146C24.3708 28.0146 24.3763 28.357 24.3763 28.7768V29.5389H24.7261H25.0758V28.4663V27.3937L24.7867 27.3952L24.4977 27.3967L24.2002 27.4787ZM29.8657 27.4766C29.7014 27.521 29.5645 27.5644 29.5616 27.5729C29.557 27.5868 29.6692 28.071 29.6798 28.0829C29.6822 28.0856 29.7582 28.0713 29.8488 28.0512C29.9394 28.0311 30.017 28.0146 30.0212 28.0146C30.0255 28.0146 30.0289 28.3576 30.0289 28.7768V29.5389H30.3857H30.7426V28.4663V27.3937L30.4535 27.3948L30.1645 27.3958L29.8657 27.4766ZM26.4845 27.8969C26.599 27.9506 26.6492 28.12 26.5863 28.2403C26.5416 28.3258 26.4758 28.3675 26.3855 28.3675C26.2923 28.3675 26.2237 28.3335 26.1774 28.2643C26.1042 28.155 26.1381 27.9778 26.246 27.9053C26.3038 27.8664 26.4115 27.8626 26.4845 27.8969ZM26.7971 38.0224C26.1786 38.0868 25.7178 38.3741 25.5053 38.8276C25.4256 38.9977 25.4024 39.1008 25.3937 39.3236C25.378 39.7241 25.4615 39.9543 25.7077 40.1902C25.947 40.4196 26.2212 40.5385 26.9053 40.7098C27.4422 40.8442 27.6521 40.9235 27.7198 41.0175C27.7574 41.0698 27.7711 41.2048 27.7451 41.2669C27.7174 41.3329 27.6269 41.4042 27.5351 41.4323C27.4112 41.4701 27.0319 41.4663 26.8432 41.4253C26.5143 41.354 26.1891 41.2049 25.9073 40.9964C25.874 40.9718 25.8446 40.9543 25.8418 40.9576C25.8391 40.9609 25.6885 41.139 25.5071 41.3534L25.1774 41.7431L25.2687 41.8155C25.8139 42.2474 26.5628 42.4779 27.3239 42.448C27.6689 42.4344 27.939 42.3761 28.1822 42.2627C28.3626 42.1785 28.4753 42.1003 28.6086 41.9665C28.8666 41.7077 28.9911 41.362 28.9674 40.9706C28.9499 40.6817 28.8701 40.4818 28.7004 40.3021C28.4446 40.0313 28.0766 39.8684 27.3391 39.6997C26.8927 39.5976 26.6785 39.5074 26.6268 39.3997C26.6138 39.3726 26.6031 39.3177 26.6031 39.2777C26.6031 39.1604 26.6526 39.093 26.7817 39.0344C26.8848 38.9875 27.1865 38.9879 27.4025 39.0351C27.6637 39.0922 27.9231 39.2009 28.1437 39.3458C28.1936 39.3786 28.2394 39.4067 28.2456 39.4082C28.256 39.4109 28.8256 38.6267 28.84 38.5899C28.8553 38.5507 28.5018 38.3311 28.2579 38.2284C27.8407 38.0526 27.2739 37.9727 26.7971 38.0224ZM3.0604 38.0596C3.04911 38.078 1.22373 42.3662 1.22373 42.3743C1.22373 42.3785 1.50519 42.3819 1.84921 42.3819H2.47467L2.63072 41.994L2.78675 41.606L3.63018 41.6058L4.47361 41.6057L4.62798 41.9938L4.78234 42.3819H5.42251C5.77459 42.3819 6.06266 42.3765 6.06266 42.3699C6.06266 42.3633 5.64884 41.39 5.14305 40.207L4.22342 38.0562L3.64521 38.0525C3.32718 38.0505 3.06401 38.0537 3.0604 38.0596ZM30.5227 40.1909C30.0209 41.3687 29.6075 42.3436 29.6039 42.3573C29.5976 42.3809 29.6309 42.382 30.2235 42.3786L30.8497 42.3749L31.0043 41.9902L31.159 41.6055L32.0031 41.6091L32.8472 41.6128L33.0003 41.9938L33.1533 42.3749L33.798 42.3786C34.4085 42.382 34.4422 42.3809 34.4332 42.3574C34.4279 42.3437 34.0117 41.3688 33.5082 40.1909L32.5928 38.0492L32.0139 38.0492L31.4349 38.0493L30.5227 40.1909ZM6.96193 40.2297V42.3819H8.61772H10.2735V41.8598V41.3376H9.21724H8.16095V39.7075V38.0774H7.56144H6.96193V40.2297ZM10.4115 38.0868C10.4063 38.092 10.402 38.327 10.402 38.609V39.1218H11.0515H11.7009V40.7519V42.3819H12.3004H12.8998L12.9035 40.7554L12.9071 39.1288L13.5601 39.1252L14.2132 39.1215V38.5994V38.0774H12.3171C11.2743 38.0774 10.4167 38.0816 10.4115 38.0868ZM14.8169 38.088C14.8201 38.0938 15.1931 38.6996 15.6456 39.4342L16.4685 40.7698V41.5759V42.3819H17.068H17.6675V41.5703V40.7588L18.4899 39.4287C18.9422 38.6971 19.3152 38.0937 19.3188 38.0878C19.3223 38.0819 19.0218 38.0788 18.6511 38.0808L17.9769 38.0845L17.533 38.8561C17.2889 39.2805 17.0855 39.6314 17.081 39.6358C17.0765 39.6402 16.8717 39.2914 16.6257 38.8606L16.1786 38.0774H15.4948C15.1187 38.0774 14.8136 38.0822 14.8169 38.088ZM20.1655 40.2297V42.3819H20.7578H21.3501L21.3537 41.2012L21.3574 40.0204L22.2903 41.2012L23.2231 42.3819H23.7426H24.2622V40.2297V38.0774H23.6699H23.0776L23.0739 39.2122L23.0703 40.347L22.1781 39.2125L21.286 38.078L20.7257 38.0777L20.1655 38.0774V40.2297ZM35.3389 40.2297V42.3819H35.9384H36.5379V41.7327V41.0835H36.8097H37.0816L37.516 41.7327L37.9504 42.3819H38.6374C39.1812 42.3819 39.3229 42.3783 39.3174 42.3643C39.3136 42.3546 39.0849 42.0209 38.8092 41.6227C38.5335 41.2245 38.3079 40.894 38.3079 40.8882C38.3079 40.8824 38.3447 40.8598 38.3898 40.838C38.6729 40.7007 38.9209 40.4655 39.0464 40.2156C39.1491 40.0111 39.1846 39.8362 39.1839 39.5381C39.1833 39.2826 39.1566 39.1325 39.0784 38.9469C38.9026 38.5293 38.5133 38.2439 37.9709 38.1349C37.7318 38.0869 37.4773 38.0777 36.3844 38.0775L35.3389 38.0774V40.2297ZM40.3063 40.2297V42.3819H40.9058H41.5053V40.2297V38.0774H40.9058H40.3063V40.2297ZM42.7709 38.0868C42.7657 38.092 42.7614 39.0605 42.7614 40.2391V42.3819H43.3608H43.9603L43.9639 41.207L43.9676 40.0321L44.8954 41.2069L45.8232 42.3817L46.3478 42.3818L46.8723 42.3819V40.2295V38.0771L46.2764 38.0808L45.6805 38.0845L45.6733 39.2119L45.6662 40.3394L44.7754 39.2084L43.8846 38.0774H43.3325C43.0289 38.0774 42.7761 38.0816 42.7709 38.0868ZM37.5552 39.1284C37.6809 39.1547 37.8106 39.224 37.8799 39.3018C37.9544 39.3855 37.985 39.4809 37.9851 39.6299C37.9851 39.7314 37.9789 39.7634 37.9447 39.838C37.8806 39.978 37.765 40.068 37.5839 40.1189C37.5172 40.1377 37.4091 40.1434 37.0196 40.1485L36.5379 40.1548V39.6313V39.1077L36.9982 39.1079C37.3429 39.1081 37.4829 39.1132 37.5552 39.1284ZM3.87739 40.0733C4.00373 40.3909 4.1071 40.656 4.1071 40.6625C4.1071 40.6689 3.89192 40.6742 3.62892 40.6742C3.36592 40.6742 3.15074 40.6695 3.15074 40.6637C3.15074 40.6338 3.62888 39.4761 3.63751 39.4851C3.6431 39.491 3.75105 39.7556 3.87739 40.0733ZM32.2549 40.0874C32.3812 40.4047 32.4823 40.6666 32.4794 40.6694C32.4765 40.6723 32.2586 40.6729 31.9952 40.6709L31.5162 40.6672L31.7475 40.0956C31.8747 39.7812 31.9837 39.5113 31.9897 39.4958C31.999 39.4718 32.0025 39.4708 32.0129 39.4891C32.0196 39.5009 32.1285 39.7702 32.2549 40.0874ZM40.8915 45.5658C40.5865 45.6021 40.3988 45.6526 40.1849 45.7557C39.6441 46.0166 39.3661 46.5435 39.451 47.1468C39.483 47.3745 39.5801 47.5651 39.7489 47.731C39.9771 47.9554 40.2768 48.0886 40.9058 48.2454C41.5959 48.4174 41.7664 48.4921 41.8067 48.6401C41.8151 48.6711 41.8179 48.7218 41.8129 48.7528C41.7823 48.9418 41.5921 49.0255 41.2269 49.0104C40.8069 48.9931 40.4481 48.8705 40.0614 48.6121C39.9082 48.5098 39.9009 48.5065 39.877 48.531C39.8634 48.545 39.7127 48.7215 39.5422 48.9231L39.2322 49.2897L39.2946 49.3438C39.3989 49.4343 39.6617 49.6009 39.8343 49.6861C40.5292 50.0288 41.5088 50.1003 42.1368 49.854C42.3293 49.7785 42.4787 49.6864 42.6153 49.5592C42.8151 49.3729 42.9397 49.1575 42.9918 48.9081C43.0162 48.7912 43.0199 48.7322 43.0146 48.5494C43.0091 48.3625 43.0027 48.3143 42.9708 48.2178C42.9194 48.0625 42.8437 47.9404 42.7257 47.8223C42.4694 47.5658 42.1072 47.4112 41.3697 47.2436C40.8405 47.1233 40.6747 47.0341 40.6536 46.8586C40.6468 46.8019 40.6517 46.7743 40.6776 46.7213C40.743 46.5878 40.9013 46.5342 41.1829 46.5503C41.5257 46.5699 41.8814 46.6901 42.1893 46.8904L42.3056 46.966L42.4789 46.7239C42.5742 46.5908 42.7087 46.4032 42.7779 46.3072C42.847 46.2111 42.9002 46.127 42.896 46.1204C42.8754 46.0874 42.5484 45.888 42.4041 45.8205C42.0368 45.6486 41.6931 45.575 41.2127 45.5653C41.0635 45.5623 40.919 45.5625 40.8915 45.5658ZM1.82459 45.6314C1.81781 45.6489 1.40616 46.6159 0.909817 47.7803C0.413477 48.9446 0.00413853 49.9053 0.000184604 49.915C-0.00555359 49.9292 0.120744 49.9321 0.623007 49.9291L1.25302 49.9255L1.40667 49.5444L1.56032 49.1634L2.40399 49.1597L3.24766 49.1561L3.40019 49.5337C3.4841 49.7414 3.55742 49.9162 3.56315 49.9221C3.56887 49.928 3.86003 49.9312 4.21019 49.9291L4.84685 49.9255L3.92364 47.7662L3.00045 45.6068L2.41869 45.6031L1.83693 45.5995L1.82459 45.6314ZM11.2441 47.6568C10.7621 48.7881 10.3467 49.7631 10.321 49.8233L10.2743 49.9328L10.9053 49.9291L11.5362 49.9255L11.6882 49.5444L11.8403 49.1634H12.6873H13.5343L13.6863 49.5444L13.8384 49.9255L14.4841 49.9291C14.9989 49.9321 15.1285 49.9292 15.123 49.915C15.1192 49.9053 14.7027 48.9303 14.1976 47.7485L13.279 45.5998H12.6998H12.1205L11.2441 47.6568ZM35.6963 45.6596C35.6116 45.8514 33.8829 49.9165 33.8829 49.9238C33.8829 49.9286 34.1646 49.9325 34.5088 49.9325H35.1348L35.2893 49.5444L35.4438 49.1563H36.2884H37.133L37.2874 49.5444L37.4418 49.9325H38.0818C38.4366 49.9325 38.7218 49.927 38.7218 49.9202C38.7218 49.9135 38.3081 48.9402 37.8024 47.7574L36.883 45.6068L36.3029 45.6031L35.7228 45.5994L35.6963 45.6596ZM5.74095 45.6456C5.73721 45.6553 5.73581 46.6223 5.73782 47.7944L5.74149 49.9255H6.341H6.94052L6.94424 49.3656L6.94798 48.8057L7.16399 48.571C7.30546 48.4172 7.38484 48.341 7.39403 48.35C7.40174 48.3577 7.64995 48.7153 7.94561 49.1447L8.48316 49.9255L9.19991 49.9291C9.59413 49.9312 9.91667 49.9296 9.91667 49.9257C9.91667 49.9218 9.53745 49.3712 9.07394 48.7022C8.61044 48.0332 8.23306 47.4784 8.23533 47.4693C8.2376 47.4601 8.60505 47.0437 9.05187 46.5439L9.8643 45.635L9.16055 45.6314C8.64135 45.6287 8.45157 45.632 8.4368 45.6442C8.42578 45.6532 8.08783 46.0439 7.68578 46.5124L6.95479 47.3642L6.95111 46.4961L6.94744 45.628H6.34758C5.88083 45.628 5.74623 45.6319 5.74095 45.6456ZM16.026 47.7803V49.9349L17.0145 49.9285C18.0233 49.9219 18.0805 49.9191 18.3705 49.8611C19.2757 49.6799 19.9313 49.0691 20.1003 48.2496C20.2077 47.7292 20.1412 47.1949 19.9145 46.7571C19.6047 46.1584 19.0099 45.7818 18.1822 45.6602C18.0601 45.6423 17.8413 45.6369 17.0287 45.6319L16.026 45.6257V47.7803ZM21.2503 47.7802V49.9325H23.0132H24.776V49.4245V48.9164H23.6055H22.4351V48.5777V48.2389H23.4771H24.5191V47.7662V47.2934H23.4768H22.4345L22.4384 46.9652L22.4422 46.6371L23.595 46.6335L24.7478 46.6299L24.7441 46.1325L24.7403 45.635L22.9953 45.6315L21.2503 45.6279V47.7802ZM25.8609 47.7803V49.9328L26.4497 49.9292L27.0385 49.9255L27.0456 48.7039L27.0527 47.4823L27.6001 48.3123C27.9012 48.7687 28.1527 49.1422 28.1591 49.1422C28.1654 49.1422 28.4201 48.7647 28.7251 48.3033L29.2795 47.4644L29.2831 48.6986L29.2868 49.9328L29.8827 49.9292L30.4785 49.9255L30.4821 47.7767L30.4858 45.628H29.8515H29.2172L29.1899 45.6668C29.1749 45.6881 28.9455 46.0549 28.6802 46.4818C28.4149 46.9088 28.1907 47.2655 28.182 47.2745C28.1702 47.2868 28.0345 47.0795 27.6509 46.463L27.1357 45.635L26.4982 45.6314L25.8609 45.6277V47.7803ZM31.7561 47.7803V49.9325H32.3556H32.9551V47.7803V45.628H32.3556H31.7561V47.7803ZM43.5079 45.6467C43.5119 45.6571 43.8819 46.2604 44.3301 46.9874L45.1449 48.3092L45.1486 49.1173L45.1523 49.9255L45.7554 49.9292L46.3585 49.9328V49.1139V48.295L47.1792 46.9679C47.6307 46.238 48 45.6379 48 45.6344C48 45.6309 47.6991 45.628 47.3313 45.628H46.6626L46.2161 46.4048C45.9705 46.832 45.7638 47.1797 45.7569 47.1774C45.7499 47.1751 45.5466 46.8271 45.3051 46.4041L44.8661 45.635L44.1833 45.6314C43.6164 45.6283 43.5017 45.6309 43.5079 45.6467ZM17.9906 46.7075C18.1469 46.7326 18.3197 46.7909 18.4335 46.8569C18.5595 46.93 18.7361 47.1112 18.7998 47.2327C18.8895 47.4038 18.9136 47.5193 18.914 47.7803C18.9143 47.9679 18.9092 48.0246 18.8839 48.1156C18.7899 48.4532 18.5688 48.6798 18.2171 48.7991C18.0538 48.8545 17.877 48.8739 17.5355 48.874L17.225 48.874V47.7803V46.6865L17.5426 46.6865C17.7548 46.6866 17.9035 46.6935 17.9906 46.7075ZM2.65313 47.6215L2.89064 48.2178L2.41185 48.2215C2.14852 48.2235 1.93056 48.2227 1.92749 48.2197C1.92054 48.2128 2.39868 47.0256 2.40848 47.0254C2.41241 47.0253 2.52251 47.2935 2.65313 47.6215ZM12.936 47.6254C13.0654 47.9499 13.169 48.2176 13.1662 48.2203C13.1635 48.223 12.9459 48.2235 12.6827 48.2215L12.2042 48.2178L12.4303 47.6532C12.685 47.0175 12.6843 47.019 12.6939 47.0285C12.6977 47.0322 12.8067 47.3009 12.936 47.6254ZM36.5367 47.623C36.663 47.9402 36.7663 48.2053 36.7663 48.2122C36.7663 48.2194 36.5591 48.2248 36.2881 48.2248C36.0251 48.2248 35.8099 48.2205 35.8099 48.2153C35.8099 48.1837 36.2868 47.0254 36.2959 47.0348C36.3021 47.0412 36.4104 47.3059 36.5367 47.623Z" fill="#F1F1F1"/>
</svg>
