<svg width="18" height="17" viewBox="0 0 18 17" fill="none" xmlns="http://www.w3.org/2000/svg">
<path d="M5.92762 5.28585C4.92943 6.13427 4.56383 7.68133 5.42527 8.92232C6.23477 10.0863 7.24537 11.0966 8.40961 11.9057C9.6506 12.7672 11.1977 12.4016 12.0461 11.4034L12.0554 11.408C13.1382 11.9104 14.289 12.2537 15.4704 12.4285V14.8845H15.4667C8.04866 14.8947 2.43814 9.22001 2.44651 1.86428V1.86056H4.90245V1.86149C5.07734 3.04295 5.42155 4.19277 5.92297 5.27562L5.92762 5.28492V5.28585ZM15.4704 16.7451H16.4007C16.6474 16.7451 16.8841 16.647 17.0585 16.4726C17.233 16.2981 17.331 16.0615 17.331 15.8148V11.6266C17.3312 11.4035 17.2512 11.1877 17.1055 11.0186C16.9598 10.8495 16.7582 10.7385 16.5375 10.7057L15.743 10.5885C14.738 10.4393 13.7596 10.1467 12.8377 9.71957L12.1372 9.3949C11.9405 9.30378 11.7182 9.28421 11.5086 9.33958C11.299 9.39495 11.1153 9.52179 10.9893 9.69818L10.672 10.1419C10.3939 10.5317 9.8627 10.6499 9.47106 10.3773C8.48911 9.69469 7.63667 8.84257 6.95372 7.86087C6.68115 7.46829 6.80022 6.9371 7.18908 6.65988L7.63282 6.34358C7.80943 6.21751 7.93641 6.03367 7.99179 5.82386C8.04717 5.61406 8.02747 5.3915 7.93609 5.19469L7.6105 4.49326C7.18443 3.57228 6.89139 2.59362 6.74254 1.58799L6.6244 0.79353C6.59159 0.572786 6.48053 0.37119 6.31146 0.225519C6.14239 0.0798473 5.92659 -0.000192348 5.70342 3.47125e-07H1.51623C1.2695 3.47125e-07 1.03288 0.0980117 0.85842 0.272473C0.683959 0.446935 0.585948 0.683555 0.585948 0.930281V1.86149C0.576645 10.2405 7.01419 16.7571 15.4695 16.7451H15.4704Z" fill="#E5E5E5"/>
</svg>
