<svg width="17" height="17" viewBox="0 0 17 17" fill="none" xmlns="http://www.w3.org/2000/svg">
<path fill-rule="evenodd" clip-rule="evenodd" d="M4.96715 0.0507087C5.86838 0.00921975 6.15573 0 8.45145 0C10.7472 0 11.0345 0.00998806 11.935 0.0507087C12.8354 0.0914293 13.4501 0.235104 13.9879 0.443317C14.5511 0.65614 15.062 0.988819 15.4846 1.41907C15.9148 1.84088 16.2468 2.35104 16.4588 2.91498C16.6678 3.4528 16.8107 4.06745 16.8522 4.96638C16.8937 5.86915 16.9029 6.1565 16.9029 8.45145C16.9029 10.7472 16.8929 11.0345 16.8522 11.9357C16.8115 12.8347 16.6678 13.4493 16.4588 13.9871C16.2467 14.5512 15.9143 15.0622 15.4846 15.4846C15.062 15.9148 14.5511 16.2468 13.9879 16.4588C13.4501 16.6678 12.8354 16.8107 11.9365 16.8522C11.0345 16.8937 10.7472 16.9029 8.45145 16.9029C6.15573 16.9029 5.86838 16.8929 4.96715 16.8522C4.06822 16.8115 3.45357 16.6678 2.91575 16.4588C2.35175 16.2467 1.84074 15.9143 1.41831 15.4846C0.988343 15.0625 0.655613 14.5518 0.443317 13.9879C0.235104 13.4501 0.0921976 12.8354 0.0507087 11.9365C0.00921975 11.0337 0 10.7464 0 8.45145C0 6.15573 0.00998806 5.86838 0.0507087 4.96791C0.0914293 4.06745 0.235104 3.4528 0.443317 2.91498C0.655927 2.3511 0.988911 1.84035 1.41907 1.41831C1.84091 0.988436 2.3514 0.655712 2.91498 0.443317C3.4528 0.235104 4.06745 0.0921976 4.96638 0.0507087H4.96715ZM11.8666 1.57197C10.9754 1.53125 10.708 1.5228 8.45145 1.5228C6.19491 1.5228 5.92754 1.53125 5.03629 1.57197C4.21189 1.60962 3.76474 1.74714 3.46663 1.86316C3.07249 2.01682 2.79051 2.19891 2.49471 2.49471C2.21431 2.7675 1.99852 3.09959 1.86316 3.46663C1.74714 3.76474 1.60962 4.21189 1.57197 5.03629C1.53125 5.92754 1.5228 6.19491 1.5228 8.45145C1.5228 10.708 1.53125 10.9754 1.57197 11.8666C1.60962 12.691 1.74714 13.1382 1.86316 13.4363C1.99838 13.8028 2.21428 14.1354 2.49471 14.4082C2.76747 14.6886 3.10014 14.9045 3.46663 15.0397C3.76474 15.1558 4.21189 15.2933 5.03629 15.3309C5.92754 15.3716 6.19414 15.3801 8.45145 15.3801C10.7088 15.3801 10.9754 15.3716 11.8666 15.3309C12.691 15.2933 13.1382 15.1558 13.4363 15.0397C13.8304 14.8861 14.1124 14.704 14.4082 14.4082C14.6886 14.1354 14.9045 13.8028 15.0397 13.4363C15.1558 13.1382 15.2933 12.691 15.3309 11.8666C15.3716 10.9754 15.3801 10.708 15.3801 8.45145C15.3801 6.19491 15.3716 5.92754 15.3309 5.03629C15.2933 4.21189 15.1558 3.76474 15.0397 3.46663C14.8861 3.07249 14.704 2.79051 14.4082 2.49471C14.1354 2.21433 13.8033 1.99855 13.4363 1.86316C13.1382 1.74714 12.691 1.60962 11.8666 1.57197ZM7.37197 11.0568C7.97483 11.3078 8.64612 11.3416 9.27118 11.1526C9.89625 10.9636 10.4363 10.5635 10.7991 10.0205C11.1619 9.47758 11.325 8.82552 11.2604 8.1757C11.1959 7.52589 10.9077 6.91864 10.4452 6.45767C10.1504 6.16301 9.79385 5.93738 9.40134 5.79704C9.00882 5.65669 8.59007 5.60512 8.17523 5.64604C7.7604 5.68696 7.35979 5.81934 7.00226 6.03367C6.64472 6.24799 6.33916 6.53892 6.10756 6.88551C5.87595 7.2321 5.72408 7.62573 5.66287 8.03806C5.60165 8.4504 5.63262 8.87117 5.75355 9.2701C5.87447 9.66902 6.08234 10.0362 6.36219 10.3451C6.64204 10.6541 6.98691 10.8971 7.37197 11.0568ZM5.37973 5.37973C5.78311 4.97635 6.262 4.65637 6.78905 4.43806C7.31609 4.21975 7.88098 4.10738 8.45145 4.10738C9.02192 4.10738 9.5868 4.21975 10.1138 4.43806C10.6409 4.65637 11.1198 4.97635 11.5232 5.37973C11.9265 5.78311 12.2465 6.262 12.4648 6.78905C12.6831 7.31609 12.7955 7.88098 12.7955 8.45145C12.7955 9.02192 12.6831 9.5868 12.4648 10.1138C12.2465 10.6409 11.9265 11.1198 11.5232 11.5232C10.7085 12.3378 9.60357 12.7955 8.45145 12.7955C7.29933 12.7955 6.1944 12.3378 5.37973 11.5232C4.56506 10.7085 4.10738 9.60357 4.10738 8.45145C4.10738 7.29933 4.56506 6.1944 5.37973 5.37973ZM13.759 4.75432C13.8589 4.66003 13.9389 4.54663 13.9943 4.42086C14.0496 4.29508 14.0792 4.15947 14.0812 4.02207C14.0832 3.88466 14.0576 3.74825 14.006 3.62092C13.9543 3.49358 13.8776 3.3779 13.7804 3.28073C13.6833 3.18356 13.5676 3.10687 13.4403 3.05521C13.3129 3.00355 13.1765 2.97796 13.0391 2.97997C12.9017 2.98197 12.7661 3.01152 12.6403 3.06687C12.5145 3.12223 12.4011 3.20225 12.3068 3.30221C12.1235 3.49662 12.0231 3.75484 12.0269 4.02207C12.0308 4.28929 12.1387 4.54448 12.3277 4.73346C12.5167 4.92244 12.7719 5.03032 13.0391 5.03422C13.3063 5.03812 13.5646 4.93771 13.759 4.75432Z" fill="#E5E5E5"/>
</svg>
