<svg width="160" height="95" viewBox="0 0 160 95" fill="none" xmlns="http://www.w3.org/2000/svg">
<path fill-rule="evenodd" clip-rule="evenodd" d="M38.6211 58.1445H47.6281C50.4316 58.1445 52.9177 60.7277 52.9177 63.8952C52.9177 65.4769 52.3699 66.8389 51.5808 67.8069C50.8926 68.6514 50.0121 69.2054 49.1433 69.3309L53.3044 76.8335H49.5441L45.5409 69.358H41.7665V76.8335H38.6211V58.1445ZM47.6281 66.1953C48.2967 66.1953 48.8285 65.924 49.1957 65.4883C49.5644 65.0499 49.7724 64.4374 49.7724 63.7513C49.7724 63.0648 49.5644 62.4526 49.1957 62.0142C48.8285 61.5786 48.2967 61.3073 47.6281 61.3073H41.7665V66.1953H47.6281Z" fill="white"/>
<path fill-rule="evenodd" clip-rule="evenodd" d="M84.5137 58.1445H93.5205C96.3241 58.1445 98.8101 60.7277 98.8101 63.8952C98.8101 65.4769 98.2623 66.8389 97.4732 67.8069C96.7851 68.6514 95.9045 69.2054 95.0357 69.3309L99.1968 76.8335H95.4365L91.4333 69.358H87.6589V76.8335H84.5137V58.1445ZM93.5205 66.1953C94.1892 66.1953 94.7209 65.924 95.0881 65.4883C95.4568 65.0499 95.6648 64.4374 95.6648 63.7513C95.6648 63.0648 95.4568 62.4526 95.0881 62.0142C94.7209 61.5786 94.1892 61.3073 93.5205 61.3073H87.6589V66.1953H93.5205Z" fill="white"/>
<path d="M3.87965 76.6896H0.0195312L9.31239 58.1445L18.7482 76.6896H14.8882L9.31239 65.0452L3.87965 76.6896Z" fill="white"/>
<path d="M20.1781 58.2891H16.4609L25.8968 76.8341L35.0467 58.2891H31.9014L25.8968 70.2212L20.1781 58.2891Z" fill="white"/>
<path d="M63.7832 67.4892C63.7832 72.6497 68.0866 76.8335 73.219 76.8335C76.0139 76.8335 78.521 75.4908 80.2243 73.5269V66.6266H73.219V69.5015H77.079V72.7566C76.0037 73.5968 74.6673 74.1021 73.219 74.1021C69.6659 74.1021 66.7854 71.062 66.7854 67.4892C66.7854 63.916 69.6659 61.0198 73.219 61.0198C74.9367 61.0198 76.4972 61.807 77.651 62.8753L79.9384 61.1779C78.2465 59.3972 75.8614 58.1445 73.219 58.1445C68.0866 58.1445 63.7832 62.3283 63.7832 67.4892Z" fill="white"/>
<path fill-rule="evenodd" clip-rule="evenodd" d="M112.106 76.8335C117.317 76.8335 121.399 72.7291 121.399 67.4892C121.399 62.2489 117.317 58.1445 112.106 58.1445C106.894 58.1445 102.67 62.2489 102.67 67.4892C102.67 72.7291 106.894 76.8335 112.106 76.8335ZM112.106 74.1021C115.659 74.1021 118.539 71.062 118.539 67.4892C118.539 63.916 115.659 61.1634 112.106 61.1634C108.553 61.1634 105.672 63.916 105.672 67.4892C105.672 71.062 108.553 74.1021 112.106 74.1021Z" fill="white"/>
<path d="M132.836 76.9768C136.468 76.9768 139.984 74.8784 139.984 71.2261V58H136.839V70.7948C136.839 73.0178 135.047 74.3889 132.836 74.3889C130.625 74.3889 128.833 73.0178 128.833 70.7948V58H125.688V71.2261C125.688 74.8784 129.204 76.9768 132.836 76.9768Z" fill="white"/>
<path fill-rule="evenodd" clip-rule="evenodd" d="M160.001 63.4632C160.001 66.4801 157.568 68.926 154.568 68.926H148.277V76.9768H145.418V58H154.568C157.568 58 160.001 60.446 160.001 63.4632ZM156.855 63.6067C156.855 64.9565 155.831 66.0507 154.568 66.0507H148.277V61.1627H154.568C155.831 61.1627 156.855 62.2569 156.855 63.6067Z" fill="white"/>
<path d="M79.653 22.2819L72.2188 17.9691L79.653 13.6562L87.0872 17.9691L79.653 22.2819Z" fill="white"/>
<path d="M78.7943 24.0082L71.0742 19.6953V28.321L78.7943 32.6338V24.0082Z" fill="white"/>
<path d="M88.2298 19.6953L80.5098 24.0082V32.6338L88.2298 28.321V19.6953Z" fill="white"/>
<path fill-rule="evenodd" clip-rule="evenodd" d="M45.3398 23.4331C45.3398 23.4331 55.0614 0 79.795 0C104.528 0 114.25 23.4331 114.25 23.4331C114.25 23.4331 104.671 46.8661 79.795 46.8661C54.9183 46.8661 45.3398 23.4331 45.3398 23.4331ZM79.795 39.5345C88.638 39.5345 95.8071 32.4694 95.8071 23.5769C95.8071 14.6844 88.638 7.47558 79.795 7.47558C70.9516 7.47558 63.9256 14.6844 63.9256 23.5769C63.9256 32.4694 70.9516 39.5345 79.795 39.5345Z" fill="white"/>
<path d="M1.46875 93.0002L5.29675 84.5402H6.18475L10.0128 93.0002H8.99275L8.00875 90.7802H3.43675L2.44075 93.0002H1.46875ZM3.80875 89.9282H7.63675L5.72875 85.6442L3.80875 89.9282Z" fill="white"/>
<path d="M13.256 93.1322C12.52 93.1322 11.94 92.9042 11.516 92.4482C11.092 91.9922 10.88 91.3922 10.88 90.6482V86.7962H11.804V90.4202C11.804 91.0042 11.952 91.4642 12.248 91.8002C12.552 92.1282 12.976 92.2922 13.52 92.2922C14.056 92.2922 14.5 92.1122 14.852 91.7522C15.204 91.3922 15.38 90.9242 15.38 90.3482V86.7962H16.292V93.0002H15.38V91.9202C14.876 92.7282 14.168 93.1322 13.256 93.1322Z" fill="white"/>
<path d="M20.6986 94.9442C19.6506 94.9442 18.7106 94.6562 17.8786 94.0802L18.2986 93.3602C19.0346 93.8882 19.8306 94.1522 20.6866 94.1522C21.3906 94.1522 21.9426 93.9602 22.3426 93.5762C22.7426 93.2002 22.9426 92.6562 22.9426 91.9442V91.2122C22.2866 92.0842 21.4746 92.5202 20.5066 92.5202C19.7306 92.5202 19.0506 92.2522 18.4666 91.7162C17.8826 91.1722 17.5906 90.4722 17.5906 89.6162V89.5922C17.5906 88.7202 17.8786 88.0162 18.4546 87.4802C19.0386 86.9362 19.7226 86.6642 20.5066 86.6642C21.4826 86.6642 22.2906 87.0802 22.9306 87.9122V86.7962H23.8546V91.9202C23.8546 92.8562 23.5906 93.5882 23.0626 94.1162C22.5106 94.6682 21.7226 94.9442 20.6986 94.9442ZM20.6866 91.7042C21.2946 91.7042 21.8266 91.5082 22.2826 91.1162C22.7386 90.7162 22.9666 90.2122 22.9666 89.6042V89.5802C22.9666 88.9642 22.7386 88.4602 22.2826 88.0682C21.8346 87.6762 21.3026 87.4802 20.6866 87.4802C20.0786 87.4802 19.5666 87.6722 19.1506 88.0562C18.7426 88.4402 18.5386 88.9442 18.5386 89.5682V89.5922C18.5386 90.2002 18.7466 90.7042 19.1626 91.1042C19.5866 91.5042 20.0946 91.7042 20.6866 91.7042Z" fill="white"/>
<path d="M25.4993 93.0002V86.7962H26.4233V87.8402C26.6713 87.4722 26.9473 87.1842 27.2513 86.9762C27.5553 86.7682 27.9473 86.6642 28.4273 86.6642C29.3633 86.6642 30.0273 87.0762 30.4193 87.9002C30.9713 87.0762 31.6993 86.6642 32.6033 86.6642C33.3233 86.6642 33.8873 86.8882 34.2953 87.3362C34.7033 87.7762 34.9073 88.3842 34.9073 89.1602V93.0002H33.9833V89.3762C33.9833 88.7762 33.8393 88.3162 33.5513 87.9962C33.2713 87.6682 32.8793 87.5042 32.3753 87.5042C31.8953 87.5042 31.4873 87.6762 31.1513 88.0202C30.8233 88.3642 30.6593 88.8322 30.6593 89.4242V93.0002H29.7473V89.3522C29.7473 88.7682 29.6033 88.3162 29.3153 87.9962C29.0353 87.6682 28.6473 87.5042 28.1513 87.5042C27.6553 87.5042 27.2433 87.6882 26.9153 88.0562C26.5873 88.4242 26.4233 88.8922 26.4233 89.4602V93.0002H25.4993Z" fill="white"/>
<path d="M39.1702 93.1442C38.3062 93.1442 37.5742 92.8442 36.9742 92.2442C36.3742 91.6362 36.0742 90.8602 36.0742 89.9162V89.8922C36.0742 88.9882 36.3542 88.2242 36.9142 87.6002C37.4822 86.9762 38.1942 86.6642 39.0502 86.6642C39.9382 86.6642 40.6422 86.9762 41.1622 87.6002C41.6822 88.2242 41.9422 89.0042 41.9422 89.9402C41.9422 90.0682 41.9382 90.1682 41.9302 90.2402H37.0102C37.0742 90.8962 37.3102 91.4122 37.7182 91.7882C38.1342 92.1562 38.6262 92.3402 39.1942 92.3402C39.9302 92.3402 40.5822 92.0482 41.1502 91.4642L41.7262 91.9802C41.0462 92.7562 40.1942 93.1442 39.1702 93.1442ZM37.0102 89.5562H41.0062C40.9582 88.9562 40.7622 88.4562 40.4182 88.0562C40.0822 87.6482 39.6182 87.4442 39.0262 87.4442C38.4902 87.4442 38.0342 87.6442 37.6582 88.0442C37.2902 88.4442 37.0742 88.9482 37.0102 89.5562Z" fill="white"/>
<path d="M43.1398 93.0002V86.7962H44.0638V87.8762C44.5678 87.0682 45.2758 86.6642 46.1878 86.6642C46.9238 86.6642 47.5038 86.8922 47.9278 87.3482C48.3518 87.8042 48.5638 88.4042 48.5638 89.1482V93.0002H47.6398V89.3762C47.6398 88.7922 47.4878 88.3362 47.1838 88.0082C46.8878 87.6722 46.4678 87.5042 45.9238 87.5042C45.3878 87.5042 44.9438 87.6842 44.5918 88.0442C44.2398 88.4042 44.0638 88.8722 44.0638 89.4482V93.0002H43.1398Z" fill="white"/>
<path d="M52.1903 93.1082C51.6543 93.1082 51.2263 92.9682 50.9063 92.6882C50.5943 92.4002 50.4383 91.9562 50.4383 91.3562V87.6122H49.5743V86.7962H50.4383V84.9242H51.3623V86.7962H53.3303V87.6122H51.3623V91.2362C51.3623 91.9242 51.7103 92.2682 52.4063 92.2682C52.7103 92.2682 53.0103 92.1962 53.3063 92.0522V92.8442C52.9863 93.0202 52.6143 93.1082 52.1903 93.1082Z" fill="white"/>
<path d="M57.0821 93.1442C56.2181 93.1442 55.4861 92.8442 54.8861 92.2442C54.2861 91.6362 53.9861 90.8602 53.9861 89.9162V89.8922C53.9861 88.9882 54.2661 88.2242 54.8261 87.6002C55.3941 86.9762 56.1061 86.6642 56.9621 86.6642C57.8501 86.6642 58.5541 86.9762 59.0741 87.6002C59.5941 88.2242 59.8541 89.0042 59.8541 89.9402C59.8541 90.0682 59.8501 90.1682 59.8421 90.2402H54.9221C54.9861 90.8962 55.2221 91.4122 55.6301 91.7882C56.0461 92.1562 56.5381 92.3402 57.1061 92.3402C57.8421 92.3402 58.4941 92.0482 59.0621 91.4642L59.6381 91.9802C58.9581 92.7562 58.1061 93.1442 57.0821 93.1442ZM54.9221 89.5562H58.9181C58.8701 88.9562 58.6741 88.4562 58.3301 88.0562C57.9941 87.6482 57.5301 87.4442 56.9381 87.4442C56.4021 87.4442 55.9461 87.6442 55.5701 88.0442C55.2021 88.4442 54.9861 88.9482 54.9221 89.5562Z" fill="white"/>
<path d="M63.6557 93.1322C62.8637 93.1322 62.1717 92.8402 61.5797 92.2562C60.9877 91.6722 60.6917 90.8922 60.6917 89.9162V89.8922C60.6917 88.9242 60.9877 88.1442 61.5797 87.5522C62.1717 86.9602 62.8637 86.6642 63.6557 86.6642C64.6397 86.6642 65.4317 87.1042 66.0317 87.9842V84.2402H66.9557V93.0002H66.0317V91.7522C65.3917 92.6722 64.5997 93.1322 63.6557 93.1322ZM63.8237 92.3042C64.4237 92.3042 64.9477 92.0802 65.3957 91.6322C65.8437 91.1762 66.0676 90.6002 66.0676 89.9042V89.8802C66.0676 89.1922 65.8437 88.6242 65.3957 88.1762C64.9477 87.7202 64.4237 87.4922 63.8237 87.4922C63.1997 87.4922 62.6797 87.7082 62.2637 88.1402C61.8477 88.5722 61.6397 89.1522 61.6397 89.8802V89.9042C61.6397 90.6242 61.8477 91.2042 62.2637 91.6442C62.6877 92.0842 63.2077 92.3042 63.8237 92.3042Z" fill="white"/>
<path d="M77.9941 93.1682L76.6741 91.8122C75.8661 92.6842 74.9501 93.1202 73.9261 93.1202C73.1661 93.1202 72.5341 92.9042 72.0301 92.4722C71.5341 92.0322 71.2861 91.4642 71.2861 90.7682V90.7442C71.2861 89.6642 71.9621 88.8562 73.3141 88.3202C73.0181 87.9762 72.8021 87.6642 72.6661 87.3842C72.5381 87.1042 72.4741 86.8002 72.4741 86.4722V86.4482C72.4741 85.8882 72.6781 85.4162 73.0861 85.0322C73.5021 84.6482 74.0381 84.4562 74.6941 84.4562C75.2781 84.4562 75.7621 84.6402 76.1461 85.0082C76.5381 85.3762 76.7341 85.8242 76.7341 86.3522V86.3762C76.7341 87.3682 76.0741 88.0962 74.7541 88.5602L76.6741 90.5162C77.0421 89.9802 77.3781 89.3562 77.6821 88.6442L78.4621 89.0042C78.0541 89.8922 77.6501 90.5962 77.2501 91.1162L78.7141 92.6162L77.9941 93.1682ZM74.2261 88.0202C75.3061 87.6442 75.8461 87.1122 75.8461 86.4242V86.4002C75.8461 86.0642 75.7341 85.7882 75.5101 85.5722C75.2861 85.3482 75.0021 85.2362 74.6581 85.2362C74.2821 85.2362 73.9741 85.3522 73.7341 85.5842C73.5021 85.8162 73.3861 86.1042 73.3861 86.4482V86.4722C73.3861 86.7202 73.4461 86.9562 73.5661 87.1802C73.6861 87.4042 73.9061 87.6842 74.2261 88.0202ZM73.9981 92.3162C74.7341 92.3162 75.4341 91.9522 76.0981 91.2242L73.8541 88.9082C72.7821 89.3082 72.2461 89.9082 72.2461 90.7082V90.7322C72.2461 91.1882 72.4101 91.5682 72.7381 91.8722C73.0661 92.1682 73.4861 92.3162 73.9981 92.3162Z" fill="white"/>
<path d="M85.9392 93.0602L82.3272 84.6002H83.3832L86.3712 91.8362L89.3712 84.6002H90.3912L86.7792 93.0602H85.9392Z" fill="white"/>
<path d="M91.2608 85.4402V84.4202H92.3168V85.4402H91.2608ZM91.3208 93.0002V86.7962H92.2448V93.0002H91.3208Z" fill="white"/>
<path d="M93.9692 93.0002V86.7962H94.8932V88.4162C95.1332 87.8802 95.4732 87.4562 95.9132 87.1442C96.3532 86.8242 96.8572 86.6722 97.4252 86.6882V87.6842H97.3532C96.6412 87.6842 96.0532 87.9322 95.5892 88.4282C95.1252 88.9242 94.8932 89.6242 94.8932 90.5282V93.0002H93.9692Z" fill="white"/>
<path d="M100.488 93.1082C99.9524 93.1082 99.5244 92.9682 99.2044 92.6882C98.8924 92.4002 98.7364 91.9562 98.7364 91.3562V87.6122H97.8724V86.7962H98.7364V84.9242H99.6604V86.7962H101.628V87.6122H99.6604V91.2362C99.6604 91.9242 100.008 92.2682 100.704 92.2682C101.008 92.2682 101.308 92.1962 101.604 92.0522V92.8442C101.284 93.0202 100.912 93.1082 100.488 93.1082Z" fill="white"/>
<path d="M105.124 93.1322C104.388 93.1322 103.808 92.9042 103.384 92.4482C102.96 91.9922 102.748 91.3922 102.748 90.6482V86.7962H103.672V90.4202C103.672 91.0042 103.82 91.4642 104.116 91.8002C104.42 92.1282 104.844 92.2922 105.388 92.2922C105.924 92.2922 106.368 92.1122 106.72 91.7522C107.072 91.3922 107.248 90.9242 107.248 90.3482V86.7962H108.16V93.0002H107.248V91.9202C106.744 92.7282 106.036 93.1322 105.124 93.1322Z" fill="white"/>
<path d="M111.667 93.1322C111.043 93.1322 110.499 92.9642 110.035 92.6282C109.579 92.2842 109.351 91.8082 109.351 91.2002V91.1762C109.351 90.5442 109.591 90.0522 110.071 89.7002C110.559 89.3482 111.203 89.1722 112.003 89.1722C112.635 89.1722 113.271 89.2602 113.911 89.4362V89.2202C113.911 88.6682 113.751 88.2482 113.431 87.9602C113.111 87.6722 112.655 87.5282 112.063 87.5282C111.439 87.5282 110.811 87.6802 110.179 87.9842L109.903 87.2282C110.631 86.8842 111.383 86.7122 112.159 86.7122C113.039 86.7122 113.707 86.9402 114.163 87.3962C114.587 87.8202 114.799 88.4242 114.799 89.2082V93.0002H113.911V92.0642C113.367 92.7762 112.619 93.1322 111.667 93.1322ZM111.847 92.4002C112.431 92.4002 112.923 92.2442 113.323 91.9322C113.723 91.6122 113.923 91.2082 113.923 90.7202V90.1202C113.299 89.9442 112.691 89.8562 112.099 89.8562C111.523 89.8562 111.075 89.9722 110.755 90.2042C110.443 90.4362 110.287 90.7482 110.287 91.1402V91.1642C110.287 91.5402 110.439 91.8402 110.743 92.0642C111.047 92.2882 111.415 92.4002 111.847 92.4002Z" fill="white"/>
<path d="M116.432 93.0002V84.2402H117.356V93.0002H116.432Z" fill="white"/>
<path d="M122.414 93.0002V84.6002H126.026C127.058 84.6002 127.854 84.8802 128.414 85.4402C128.846 85.8722 129.062 86.4242 129.062 87.0962V87.1202C129.062 87.7922 128.854 88.3402 128.438 88.7642C128.022 89.1802 127.47 89.4482 126.782 89.5682L129.362 93.0002H128.198L125.762 89.7362H123.362V93.0002H122.414ZM123.362 88.8842H125.942C126.582 88.8842 127.102 88.7282 127.502 88.4162C127.902 88.1042 128.102 87.6842 128.102 87.1562V87.1322C128.102 86.6122 127.914 86.2082 127.538 85.9202C127.162 85.6242 126.634 85.4762 125.954 85.4762H123.362V88.8842Z" fill="white"/>
<path d="M133.104 93.1442C132.24 93.1442 131.508 92.8442 130.908 92.2442C130.308 91.6362 130.008 90.8602 130.008 89.9162V89.8922C130.008 88.9882 130.288 88.2242 130.848 87.6002C131.416 86.9762 132.128 86.6642 132.984 86.6642C133.872 86.6642 134.576 86.9762 135.096 87.6002C135.616 88.2242 135.876 89.0042 135.876 89.9402C135.876 90.0682 135.872 90.1682 135.864 90.2402H130.944C131.008 90.8962 131.244 91.4122 131.652 91.7882C132.068 92.1562 132.56 92.3402 133.128 92.3402C133.864 92.3402 134.516 92.0482 135.084 91.4642L135.66 91.9802C134.98 92.7562 134.128 93.1442 133.104 93.1442ZM130.944 89.5562H134.94C134.892 88.9562 134.696 88.4562 134.352 88.0562C134.016 87.6482 133.552 87.4442 132.96 87.4442C132.424 87.4442 131.968 87.6442 131.592 88.0442C131.224 88.4442 131.008 88.9482 130.944 89.5562Z" fill="white"/>
<path d="M138.922 93.1322C138.298 93.1322 137.754 92.9642 137.29 92.6282C136.834 92.2842 136.606 91.8082 136.606 91.2002V91.1762C136.606 90.5442 136.846 90.0522 137.326 89.7002C137.814 89.3482 138.458 89.1722 139.258 89.1722C139.89 89.1722 140.526 89.2602 141.166 89.4362V89.2202C141.166 88.6682 141.006 88.2482 140.686 87.9602C140.366 87.6722 139.91 87.5282 139.318 87.5282C138.694 87.5282 138.066 87.6802 137.434 87.9842L137.158 87.2282C137.886 86.8842 138.638 86.7122 139.414 86.7122C140.294 86.7122 140.962 86.9402 141.418 87.3962C141.842 87.8202 142.054 88.4242 142.054 89.2082V93.0002H141.166V92.0642C140.622 92.7762 139.874 93.1322 138.922 93.1322ZM139.102 92.4002C139.686 92.4002 140.178 92.2442 140.578 91.9322C140.978 91.6122 141.178 91.2082 141.178 90.7202V90.1202C140.554 89.9442 139.946 89.8562 139.354 89.8562C138.778 89.8562 138.33 89.9722 138.01 90.2042C137.698 90.4362 137.542 90.7482 137.542 91.1402V91.1642C137.542 91.5402 137.694 91.8402 137.998 92.0642C138.302 92.2882 138.67 92.4002 139.102 92.4002Z" fill="white"/>
<path d="M143.687 93.0002V84.2402H144.611V93.0002H143.687Z" fill="white"/>
<path d="M146.36 85.4402V84.4202H147.416V85.4402H146.36ZM146.42 93.0002V86.7962H147.344V93.0002H146.42Z" fill="white"/>
<path d="M151.144 93.1082C150.608 93.1082 150.18 92.9682 149.86 92.6882C149.548 92.4002 149.392 91.9562 149.392 91.3562V87.6122H148.528V86.7962H149.392V84.9242H150.316V86.7962H152.284V87.6122H150.316V91.2362C150.316 91.9242 150.664 92.2682 151.36 92.2682C151.664 92.2682 151.964 92.1962 152.26 92.0522V92.8442C151.94 93.0202 151.568 93.1082 151.144 93.1082Z" fill="white"/>
<path d="M156.151 91.9682L158.143 86.7962H159.127L156.523 93.2042C156.267 93.8362 155.975 94.2842 155.647 94.5482C155.327 94.8202 154.931 94.9562 154.459 94.9562C154.011 94.9562 153.571 94.8522 153.139 94.6442L153.451 93.9122C153.747 94.0642 154.071 94.1402 154.423 94.1402C154.711 94.1402 154.947 94.0522 155.131 93.8762C155.323 93.7082 155.511 93.4082 155.695 92.9762L152.875 86.7962H153.895L156.151 91.9682Z" fill="white"/>
</svg>
