<svg width="723" height="119" viewBox="0 0 723 119" fill="none" xmlns="http://www.w3.org/2000/svg">
<g filter="url(#filter0_d)">
<path d="M14.604 40.9997V11.5997H22.752V20.3777H27.078C30.886 20.3777 33.896 21.2457 36.108 22.9817C38.32 24.6897 39.426 27.1817 39.426 30.4577V30.5417C39.426 33.8177 38.306 36.3797 36.066 38.2277C33.826 40.0757 30.746 40.9997 26.826 40.9997H14.604ZM42.576 40.9997V11.5997H50.724V40.9997H42.576ZM22.752 34.2377H26.616C28.072 34.2377 29.22 33.9157 30.06 33.2717C30.9 32.6277 31.32 31.7177 31.32 30.5417V30.4577C31.32 28.0497 29.766 26.8457 26.658 26.8457H22.752V34.2377Z" fill="#0065FF"/>
<path d="M56.3678 40.9997V32.8097H64.6418V40.9997H56.3678Z" fill="#0065FF"/>
<path d="M81.7781 40.9997L94.2521 11.3897H102.106L114.622 40.9997H105.886L103.786 35.7077H92.4041L90.3041 40.9997H81.7781ZM94.7981 29.3657H101.392L98.1161 21.0497L94.7981 29.3657Z" fill="#0065FF"/>
<path d="M135.303 11.3897L147.609 40.9997H138.578L131.48 22.6457L124.382 40.9997H115.562L127.826 11.3897H135.303Z" fill="#0065FF"/>
<path d="M155.106 40.9997V18.7397H146.328V11.5997H172.074V18.7397H163.254V40.9997H155.106Z" fill="#0065FF"/>
<path d="M176.869 40.9997V11.5997H185.017V20.3777H189.343C193.151 20.3777 196.161 21.2457 198.373 22.9817C200.585 24.6897 201.691 27.1817 201.691 30.4577V30.5417C201.691 33.8177 200.571 36.3797 198.331 38.2277C196.091 40.0757 193.011 40.9997 189.091 40.9997H176.869ZM204.841 40.9997V11.5997H212.989V40.9997H204.841ZM185.017 34.2377H188.881C190.337 34.2377 191.485 33.9157 192.325 33.2717C193.165 32.6277 193.585 31.7177 193.585 30.5417V30.4577C193.585 28.0497 192.031 26.8457 188.923 26.8457H185.017V34.2377Z" fill="#0065FF"/>
<path d="M219.431 40.9997V11.5997H227.579V22.6037H238.037V11.5997H246.185V40.9997H238.037V29.8277H227.579V40.9997H219.431Z" fill="#0065FF"/>
<path d="M266.796 41.5877C262.568 41.5877 258.984 40.1457 256.044 37.2617C253.104 34.3497 251.634 30.7237 251.634 26.3837V26.2997C251.634 21.9877 253.104 18.3617 256.044 15.4217C258.984 12.4817 262.666 11.0117 267.09 11.0117C272.494 11.0117 276.652 13.0417 279.564 17.1017L273.432 21.8477C271.556 19.5517 269.414 18.4037 267.006 18.4037C264.99 18.4037 263.31 19.1597 261.966 20.6717C260.65 22.1837 259.992 24.0317 259.992 26.2157V26.2997C259.992 28.5397 260.65 30.4157 261.966 31.9277C263.282 33.4117 264.962 34.1537 267.006 34.1537C268.434 34.1537 269.638 33.8597 270.618 33.2717C271.626 32.6837 272.634 31.7877 273.642 30.5837L279.774 34.9517C278.206 37.0797 276.4 38.7177 274.356 39.8657C272.34 41.0137 269.82 41.5877 266.796 41.5877Z" fill="#0065FF"/>
<path d="M281.983 40.9997L294.457 11.3897H302.311L314.827 40.9997H306.091L303.991 35.7077H292.609L290.509 40.9997H281.983ZM295.003 29.3657H301.597L298.321 21.0497L295.003 29.3657Z" fill="#0065FF"/>
<path d="M318.897 40.9997V11.5997H331.539C335.263 11.5997 338.217 12.5097 340.401 14.3297C342.613 16.1497 343.719 18.6697 343.719 21.8897V21.9737C343.719 25.3617 342.557 27.9797 340.233 29.8277C337.909 31.6757 334.871 32.5997 331.119 32.5997H327.045V40.9997H318.897ZM327.045 26.2157H330.951C332.379 26.2157 333.513 25.8657 334.353 25.1657C335.193 24.4657 335.613 23.5277 335.613 22.3517V22.2677C335.613 21.0357 335.193 20.0977 334.353 19.4537C333.541 18.7817 332.393 18.4457 330.909 18.4457H327.045V26.2157Z" fill="#0065FF"/>
<path d="M376.137 40.9997H367.989V24.2417L355.473 40.9997H348.375V11.5997H356.523V27.7277L368.619 11.5997H376.137V40.9997Z" fill="#0065FF"/>
<path d="M382.57 40.9997V11.5997H390.718V22.6037H401.176V11.5997H409.324V40.9997H401.176V29.8277H390.718V40.9997H382.57Z" fill="#0065FF"/>
<path d="M427.239 40.9997L439.713 11.3897H447.567L460.083 40.9997H451.347L449.247 35.7077H437.865L435.765 40.9997H427.239ZM440.259 29.3657H446.853L443.577 21.0497L440.259 29.3657Z" fill="#0065FF"/>
<path d="M467.562 40.9997V18.7397H458.784V11.5997H484.53V18.7397H475.71V40.9997H467.562Z" fill="#0065FF"/>
<path d="M489.324 40.9997V11.5997H497.472V20.3777H501.798C505.606 20.3777 508.616 21.2457 510.828 22.9817C513.04 24.6897 514.146 27.1817 514.146 30.4577V30.5417C514.146 33.8177 513.026 36.3797 510.786 38.2277C508.546 40.0757 505.466 40.9997 501.546 40.9997H489.324ZM517.296 40.9997V11.5997H525.444V40.9997H517.296ZM497.472 34.2377H501.336C502.792 34.2377 503.94 33.9157 504.78 33.2717C505.62 32.6277 506.04 31.7177 506.04 30.5417V30.4577C506.04 28.0497 504.486 26.8457 501.378 26.8457H497.472V34.2377Z" fill="#0065FF"/>
<path d="M531.886 40.9997V11.5997H540.034V22.6037H550.492V11.5997H558.64V40.9997H550.492V29.8277H540.034V40.9997H531.886Z" fill="#0065FF"/>
<path d="M563.417 33.7757H567.029L576.647 11.3897H585.593L595.169 33.7757H598.823V47.3417H591.263V40.9997H570.935V47.3417H563.417V33.7757ZM581.015 19.7057L575.345 34.0697H586.685L581.015 19.7057Z" fill="#0065FF"/>
<path d="M600.918 40.9997L613.392 11.3897H621.246L633.762 40.9997H625.026L622.926 35.7077H611.544L609.444 40.9997H600.918ZM613.938 29.3657H620.532L617.256 21.0497L613.938 29.3657Z" fill="#0065FF"/>
<path d="M638.702 40.9997V30.3737H635.342V24.8297H638.702V11.5997H661.088V18.6557H646.85V24.8717H653.486V30.3737H646.85V40.9997H638.702Z" fill="#0065FF"/>
<path d="M665.834 40.9997V11.5997H673.982V20.3777H678.308C682.116 20.3777 685.126 21.2457 687.338 22.9817C689.55 24.6897 690.656 27.1817 690.656 30.4577V30.5417C690.656 33.8177 689.536 36.3797 687.296 38.2277C685.056 40.0757 681.976 40.9997 678.056 40.9997H665.834ZM693.806 40.9997V11.5997H701.954V40.9997H693.806ZM673.982 34.2377H677.846C679.302 34.2377 680.45 33.9157 681.29 33.2717C682.13 32.6277 682.55 31.7177 682.55 30.5417V30.4577C682.55 28.0497 680.996 26.8457 677.888 26.8457H673.982V34.2377Z" fill="#0065FF"/>
<path d="M23.13 90.9997V84.1957H16.41V78.6517H22.29L11.916 61.5997H21.198L27.246 72.3097L33.336 61.5997H42.45L31.992 78.6517H37.956V84.1957H31.278V90.9997H23.13Z" fill="#0065FF"/>
<path d="M58.1921 61.3897L70.4981 90.9997H61.4681L54.3701 72.6457L47.2721 90.9997H38.4521L50.7161 61.3897H58.1921Z" fill="#0065FF"/>
<path d="M76.3581 90.9997V68.7397H67.5801V61.5997H93.3261V68.7397H84.5061V90.9997H76.3581Z" fill="#0065FF"/>
<path d="M103.665 90.9997V68.7397H94.8867V61.5997H120.633V68.7397H111.813V90.9997H103.665Z" fill="#0065FF"/>
<path d="M123.789 90.9997V61.5997H131.937V70.3777H136.263C140.071 70.3777 143.081 71.2457 145.293 72.9817C147.505 74.6897 148.611 77.1817 148.611 80.4577V80.5417C148.611 83.8177 147.491 86.3797 145.251 88.2277C143.011 90.0757 139.931 90.9997 136.011 90.9997H123.789ZM151.761 90.9997V61.5997H159.909V90.9997H151.761ZM131.937 84.2377H135.801C137.257 84.2377 138.405 83.9157 139.245 83.2717C140.085 82.6277 140.505 81.7177 140.505 80.5417V80.4577C140.505 78.0497 138.951 76.8457 135.843 76.8457H131.937V84.2377Z" fill="#0065FF"/>
<path d="M192.937 61.5997L180.715 75.8377L187.435 83.7757H193.651V97.3417H186.091V90.9997H183.445L174.289 79.7437H172.819L172.861 90.9997H164.713V61.5997H172.861L172.819 72.6877H174.289L183.193 61.5997H192.937Z" fill="#0065FF"/>
<path d="M208.293 90.9997V61.5997H231.519V68.4037H216.231V72.7297H222.951C226.507 72.7297 229.223 73.4857 231.099 74.9977C232.975 76.5097 233.913 78.6657 233.913 81.4657V81.5497C233.913 84.4897 232.933 86.7997 230.973 88.4797C229.041 90.1597 226.185 90.9997 222.405 90.9997H208.293ZM216.231 84.4897H222.027C223.231 84.4897 224.155 84.2517 224.799 83.7757C225.471 83.2717 225.807 82.5857 225.807 81.7177V81.6337C225.807 79.8697 224.519 78.9877 221.943 78.9877H216.231V84.4897Z" fill="#0065FF"/>
<path d="M237.491 90.9997V61.5997H245.639V90.9997H237.491Z" fill="#0065FF"/>
<path d="M268.031 61.3897L280.337 90.9997H271.307L264.209 72.6457L257.111 90.9997H248.291L260.555 61.3897H268.031Z" fill="#0065FF"/>
<path d="M282.999 90.9997V61.5997H291.147V90.9997H282.999Z" fill="#0065FF"/>
<path d="M296.109 90.9997V61.5997H304.719L311.733 72.9817L318.747 61.5997H327.357V90.9997H319.251V74.1157L311.733 85.6237H311.565L304.089 74.1577V90.9997H296.109Z" fill="#0065FF"/>
<path d="M342.014 90.9997L354.488 61.3897H362.342L374.858 90.9997H366.122L364.022 85.7077H352.64L350.54 90.9997H342.014ZM355.034 79.3657H361.628L358.352 71.0497L355.034 79.3657Z" fill="#0065FF"/>
<path d="M377.29 90.9997V61.5997H385.438L385.396 72.6877H386.866L395.77 61.5997H405.514L393.292 75.8377L406.102 90.9997H396.022L386.866 79.7437H385.396L385.438 90.9997H377.29Z" fill="#0065FF"/>
<path d="M404.625 90.9997L417.099 61.3897H424.953L437.469 90.9997H428.733L426.633 85.7077H415.251L413.151 90.9997H404.625ZM417.645 79.3657H424.239L420.963 71.0497L417.645 79.3657Z" fill="#0065FF"/>
<path d="M437.935 83.7757H441.547L451.165 61.3897H460.111L469.687 83.7757H473.341V97.3417H465.781V90.9997H445.453V97.3417H437.935V83.7757ZM455.533 69.7057L449.863 84.0697H461.203L455.533 69.7057Z" fill="#0065FF"/>
<path d="M476.437 90.9997V61.5997H500.083V68.4877H484.501V72.9817H498.613V79.4077H484.501V84.0697H500.293V90.9997H476.437Z" fill="#0065FF"/>
<path d="M504.071 90.9997V61.5997H512.681L519.695 72.9817L526.709 61.5997H535.319V90.9997H527.213V74.1157L519.695 85.6237H519.527L512.051 74.1577V90.9997H504.071Z" fill="#0065FF"/>
<path d="M567.876 90.9997H559.728V74.2417L547.212 90.9997H540.114V61.5997H548.262V77.7277L560.358 61.5997H567.876V90.9997Z" fill="#0065FF"/>
<path d="M597.703 61.5997V90.9997H589.555V82.0957H586.027L580.063 90.9997H570.613L577.711 80.7517C575.723 79.9397 574.211 78.7777 573.175 77.2657C572.139 75.7257 571.621 73.9477 571.621 71.9317V71.8897C571.621 68.5577 572.769 66.0097 575.065 64.2457C577.361 62.4817 580.483 61.5997 584.431 61.5997H597.703ZM589.555 68.6137H584.221C582.821 68.6137 581.729 68.9217 580.945 69.5377C580.189 70.1537 579.811 71.0357 579.811 72.1837V72.2257C579.811 73.3457 580.189 74.2137 580.945 74.8297C581.729 75.4177 582.807 75.7117 584.179 75.7117H589.555V68.6137Z" fill="#0065FF"/>
<path d="M616.675 91.5877C612.447 91.5877 608.863 90.1457 605.923 87.2617C602.983 84.3497 601.513 80.7237 601.513 76.3837V76.2997C601.513 71.9877 602.983 68.3617 605.923 65.4217C608.863 62.4817 612.545 61.0117 616.969 61.0117C622.373 61.0117 626.531 63.0417 629.443 67.1017L623.311 71.8477C621.435 69.5517 619.293 68.4037 616.885 68.4037C614.869 68.4037 613.189 69.1597 611.845 70.6717C610.529 72.1837 609.871 74.0317 609.871 76.2157V76.2997C609.871 78.5397 610.529 80.4157 611.845 81.9277C613.161 83.4117 614.841 84.1537 616.885 84.1537C618.313 84.1537 619.517 83.8597 620.497 83.2717C621.505 82.6837 622.513 81.7877 623.521 80.5837L629.653 84.9517C628.085 87.0797 626.279 88.7177 624.235 89.8657C622.219 91.0137 619.699 91.5877 616.675 91.5877Z" fill="#0065FF"/>
<path d="M632.78 90.9997V61.5997H640.928V70.3777H645.254C649.062 70.3777 652.072 71.2457 654.284 72.9817C656.496 74.6897 657.602 77.1817 657.602 80.4577V80.5417C657.602 83.8177 656.482 86.3797 654.242 88.2277C652.002 90.0757 648.922 90.9997 645.002 90.9997H632.78ZM660.752 90.9997V61.5997H668.9V90.9997H660.752ZM640.928 84.2377H644.792C646.248 84.2377 647.396 83.9157 648.236 83.2717C649.076 82.6277 649.496 81.7177 649.496 80.5417V80.4577C649.496 78.0497 647.942 76.8457 644.834 76.8457H640.928V84.2377Z" fill="#0065FF"/>
</g>
<defs>
<filter id="filter0_d" x="0.916016" y="0.0117188" width="722.038" height="118.33" filterUnits="userSpaceOnUse" color-interpolation-filters="sRGB">
<feFlood flood-opacity="0" result="BackgroundImageFix"/>
<feColorMatrix in="SourceAlpha" type="matrix" values="0 0 0 0 0 0 0 0 0 0 0 0 0 0 0 0 0 0 127 0" result="hardAlpha"/>
<feOffset dx="5" dy="5"/>
<feGaussianBlur stdDeviation="8"/>
<feComposite in2="hardAlpha" operator="out"/>
<feColorMatrix type="matrix" values="0 0 0 0 0 0 0 0 0 0 0 0 0 0 0 0 0 0 0.25 0"/>
<feBlend mode="normal" in2="BackgroundImageFix" result="effect1_dropShadow"/>
<feBlend mode="normal" in="SourceGraphic" in2="effect1_dropShadow" result="shape"/>
</filter>
</defs>
</svg>
